<svg width="136" height="34" fill="none" xmlns="http://www.w3.org/2000/svg"><g clip-path="url(#clip0_2_308)" fill="#3D3A71"><path d="M80.596 29.903a2.015 2.015 0 00-1.472-.633h-7.36l6.212-7.05c.467-.537.902-1.102 1.302-1.692a10.81 10.81 0 001.09-2.016c.294-.7.446-1.45.449-2.208a8.777 8.777 0 00-.898-4.076 6.571 6.571 0 00-2.642-2.657 7.596 7.596 0 00-3.857-.956 7.75 7.75 0 00-3.9.956 7.513 7.513 0 00-2.767 2.797 7.785 7.785 0 00-1.016 3.966 1.98 1.98 0 00.61 1.471 2.097 2.097 0 002.945 0 2.008 2.008 0 00.588-1.434 3.958 3.958 0 01.471-1.928 3.679 3.679 0 011.28-1.391 3.245 3.245 0 011.819-.537 3.282 3.282 0 011.759.449c.488.308.874.753 1.11 1.28.286.659.424 1.372.406 2.09a3.341 3.341 0 01-.442 1.553c-.38.684-.835 1.326-1.354 1.913l-8.61 10.08a1.992 1.992 0 00-.582 1.473 2.039 2.039 0 00.589 1.471 2.019 2.019 0 001.472.618h11.274a2.047 2.047 0 001.472-.61 2.053 2.053 0 000-2.944l.052.015zm5.364-.463a2.158 2.158 0 00-3.083 0 2.134 2.134 0 00-.648 1.567 2.208 2.208 0 003.732 1.538 2.128 2.128 0 00.633-1.538 2.164 2.164 0 00-.633-1.568zM38.793 5.09a2.788 2.788 0 00.692-3.973 2.848 2.848 0 00-3.871-.619l-6.815 4.57 3.04 1.472a5.263 5.263 0 005.254-.353l1.7-1.097zM25.627 3.972a2.76 2.76 0 011.126.14l-5.476-2.694a2.944 2.944 0 00-2.87.192L1.237 13.118a2.79 2.79 0 103.106 4.636l15.875-10.64L24.22 4.42c.42-.274.906-.43 1.406-.45z"/><path d="M31.846 6.584l-3.04-1.472-2.053-1.008a2.996 2.996 0 00-2.532.316l-4.003 2.694 5.806 2.825 1.98.972a3.116 3.116 0 002.583-.332l4.004-2.656 2.524-1.692a5.262 5.262 0 01-5.27.353zm-17.42 26.844a7.618 7.618 0 01-4.122-1.156 8.205 8.205 0 01-2.944-3.134 9.322 9.322 0 01-1.06-4.474 8.83 8.83 0 011.156-4.496 8.544 8.544 0 013.135-3.15 8.656 8.656 0 014.416-1.155 8.516 8.516 0 017.602 4.305 8.83 8.83 0 011.156 4.496h-1.237a9.33 9.33 0 01-1.06 4.474 8.213 8.213 0 01-2.892 3.134 7.618 7.618 0 01-4.15 1.156zm.633-2.848a5.403 5.403 0 002.877-.773 5.511 5.511 0 001.994-2.119c.497-.93.75-1.97.736-3.024a6.313 6.313 0 00-.736-3.054 5.519 5.519 0 00-1.994-2.12 5.402 5.402 0 00-2.877-.772 5.424 5.424 0 00-2.863.773 5.593 5.593 0 00-2.024 2.119 6.203 6.203 0 00-.736 3.054 6.136 6.136 0 00.736 3.024 5.586 5.586 0 002.024 2.12 5.424 5.424 0 002.863.772zm7.087 2.752a1.568 1.568 0 01-1.612-1.612v-4.84l.604-3.327 2.627 1.141v7.027a1.568 1.568 0 01-1.612 1.612h-.007zm14.277.096a8.648 8.648 0 01-4.415-1.156 8.543 8.543 0 01-3.135-3.15 8.829 8.829 0 01-1.156-4.495 9.322 9.322 0 011.06-4.474 8.212 8.212 0 012.87-3.135 7.626 7.626 0 014.144-1.155 7.781 7.781 0 016.108 2.877v-8.536a1.553 1.553 0 01.456-1.17 1.604 1.604 0 012.768 1.17v14.423a8.829 8.829 0 01-1.156 4.496 8.514 8.514 0 01-7.544 4.305zm0-2.848a5.403 5.403 0 002.878-.773 5.49 5.49 0 001.994-2.134 6.32 6.32 0 00.736-3.039 6.225 6.225 0 00-.736-3.039 5.555 5.555 0 00-1.994-2.104 5.705 5.705 0 00-5.74 0 5.622 5.622 0 00-2.024 2.104 6.113 6.113 0 00-.736 3.04 6.224 6.224 0 00.736 3.038c.47.88 1.17 1.618 2.024 2.134a5.424 5.424 0 002.862.773zm20.696 2.848a11.968 11.968 0 01-4.13-.685 7.844 7.844 0 01-2.943-1.722 1.377 1.377 0 01-.397-1.155 1.522 1.522 0 01.618-1.06 1.648 1.648 0 011.25-.426c.409.05.785.247 1.06.552.49.49 1.077.873 1.723 1.125a6.492 6.492 0 002.642.523 5.343 5.343 0 002.804-.604 1.862 1.862 0 00.993-1.552 1.935 1.935 0 00-.905-1.648 8.626 8.626 0 00-3.4-1.141 9.995 9.995 0 01-4.636-1.899 3.974 3.974 0 01-1.472-3.098 3.863 3.863 0 01.95-2.67 5.762 5.762 0 012.435-1.583 9.286 9.286 0 013.099-.522 9.663 9.663 0 013.68.662 6.314 6.314 0 012.56 1.832 1.473 1.473 0 01.413 1.06 1.228 1.228 0 01-.538.935 1.546 1.546 0 01-1.104.257 2.26 2.26 0 01-1.17-.567 4.313 4.313 0 00-1.707-1.044 7.171 7.171 0 00-2.12-.287 5.309 5.309 0 00-2.362.426 1.472 1.472 0 00-.964 1.391c-.005.366.1.725.301 1.03.307.384.718.671 1.185.825.843.321 1.712.568 2.598.735a14.13 14.13 0 013.76 1.17c.79.39 1.463.982 1.951 1.715.405.664.614 1.43.604 2.207a4.65 4.65 0 01-.773 2.627 5.329 5.329 0 01-2.282 1.87 8.921 8.921 0 01-3.723.72zm39.204 0a8.567 8.567 0 01-4.416-1.156 8.463 8.463 0 01-3.098-3.15 9.131 9.131 0 01-1.17-4.495V10.204a1.553 1.553 0 01.456-1.17 1.605 1.605 0 012.767 1.17v8.543a8.146 8.146 0 012.672-2.104 8.008 8.008 0 017.58.383 8.205 8.205 0 012.892 3.134 9.312 9.312 0 011.06 4.474 8.83 8.83 0 01-1.155 4.496 8.517 8.517 0 01-7.58 4.305l-.008-.007zm0-2.848a5.403 5.403 0 002.878-.773 5.608 5.608 0 002.009-2.134c.499-.934.753-1.98.736-3.039a6.123 6.123 0 00-.736-3.039 5.678 5.678 0 00-2.01-2.104 5.704 5.704 0 00-5.74 0 5.504 5.504 0 00-2.009 2.104 6.21 6.21 0 00-.736 3.04 6.329 6.329 0 00.736 3.038 5.417 5.417 0 004.872 2.944v-.037zM111.8 13.177a2.083 2.083 0 01-1.471-3.561 2.078 2.078 0 012.993-.05 2.072 2.072 0 01.431 2.317 2.078 2.078 0 01-.481.676 2 2 0 01-1.472.618zm0 20.126a1.564 1.564 0 01-1.501-.988 1.565 1.565 0 01-.11-.624V17.607a1.555 1.555 0 01.456-1.17 1.604 1.604 0 012.767 1.17v14.077a1.592 1.592 0 01-.441 1.155 1.56 1.56 0 01-1.171.464zm15.477.125a8.648 8.648 0 01-4.415-1.156 8.533 8.533 0 01-3.135-3.15 8.82 8.82 0 01-1.156-4.495 9.323 9.323 0 011.06-4.474 8.214 8.214 0 012.892-3.135 7.627 7.627 0 014.144-1.155 7.776 7.776 0 016.108 2.877v-8.536a1.548 1.548 0 01.456-1.17 1.608 1.608 0 011.789-.373 1.606 1.606 0 01.979 1.543v14.423a8.84 8.84 0 01-1.156 4.496 8.513 8.513 0 01-7.543 4.305h-.023zm0-2.848a5.404 5.404 0 002.878-.773 5.495 5.495 0 001.995-2.134 6.33 6.33 0 00.735-3.039 6.226 6.226 0 00-.735-3.039 5.561 5.561 0 00-1.995-2.104 5.703 5.703 0 00-5.74 0 5.612 5.612 0 00-2.024 2.104 6.112 6.112 0 00-.736 3.04 6.216 6.216 0 00.736 3.038c.47.88 1.17 1.618 2.024 2.134a5.423 5.423 0 002.862.773z"/></g><defs><clipPath id="clip0_2_308"><path fill="#fff" d="M0 0h136v34H0z"/></clipPath></defs></svg>