<svg width="179" height="42" fill="none" xmlns="http://www.w3.org/2000/svg"><path fill-rule="evenodd" clip-rule="evenodd" d="M39.91 15.527c-2.31-8.31-9.927-14.41-18.972-14.41-10.878 0-19.697 8.816-19.697 19.694 0 10.88 8.82 19.697 19.697 19.697 9.045 0 16.662-6.1 18.971-14.413h6.968v14.413h125.86V26.095h4.805V15.527H39.909zM20.937 30.42c-5.307 0-9.61-4.304-9.61-9.609s4.303-9.607 9.61-9.607c5.302 0 9.605 4.302 9.605 9.607s-4.303 9.609-9.605 9.609z" fill="#3D3A71"/><path fill-rule="evenodd" clip-rule="evenodd" d="M86.804 35.537c-3.694 0-4.866-1.789-4.866-4.173h2.675c.055 1.135.555 1.75 2.25 1.75 1.594 0 2.328-.673 2.328-2.345 0-1.752-2.078-1.752-3.658-1.964-1.675-.212-3.442-1.039-3.442-4.094 0-2.77 1.69-4.213 4.732-4.213 2.674 0 4.444.979 4.695 3.94h-2.674c-.08-1.248-.734-1.612-2.021-1.612-1.462 0-2.057.458-2.057 1.863 0 1.865 1.478 1.712 3.729 2.058 1.713.27 3.348.964 3.348 3.926 0 3.422-1.482 4.864-5.039 4.864zm15.29-.154l-4.176-5.942h-.748v5.942h-2.632V20.575h2.652v6.231h.712l3.885-6.231h3.098l-4.83 7.405 5.27 7.403h-3.231zm14.022.021h-8.79V20.575h8.523v2.307h-5.869v3.81h5v2.384h-5v3.905h6.136v2.423zm11.809 0h-8.789V20.575h8.519v2.307h-5.865v3.81h5.002v2.384h-5.002v3.905h6.135v2.423zm23.524 0h-8.79V20.575h8.52v2.307h-5.866v3.81h5.003v2.384h-5.003v3.905h6.136v2.423zm9.444-5.656c1.791-.576 2.557-1.768 2.557-3.964v-.767c0-3.137-1.672-4.442-5.248-4.442h-3.735v14.808h2.654v-5.21h.985l2.943 5.21h3.094l-3.25-5.635zm-.231-4.096c0 1.406-.538 2.077-2.46 2.077h-1.1v-4.712h1.137c2.058 0 2.423.73 2.423 2.136v.499zm-25.985-5.077h-3.732v14.808h2.714v-4.537h1.018c3.521 0 5.25-1.423 5.25-4.483v-1.366c0-3.135-1.671-4.422-5.25-4.422zm2.557 5.653c0 1.405-.632 2.057-2.557 2.057h-1.038v-5.287h1.078c2.057 0 2.517.73 2.517 2.136v1.094zm-62.798-5.653H69.57v14.808h4.865c3.52 0 5.06-1.287 5.06-4.345v-6.041c0-3.135-1.482-4.422-5.06-4.422zM76.84 30.9c0 1.405-.483 2.08-2.404 2.08h-2.231v-9.983h2.27c2.059 0 2.365.73 2.365 2.136V30.9zM63.03 20.591h-2.634l-4.099 14.793h2.733l.769-2.617h3.788l.752 2.617h2.733L63.029 20.59zm-2.577 9.583l1.228-5.484 1.234 5.484h-2.462z" fill="#fff"/></svg>