<svg width="393" height="70" fill="none" xmlns="http://www.w3.org/2000/svg"><g clip-path="url(#clip0_1_198)"><path d="M118.7 34.7c.1 6.9-4.1 13.9-13.7 13.9H94.2V21.3H105c9.4 0 13.5 6.7 13.7 13.4zm-19.3 9h5.6c6.2 0 8.7-4.5 8.6-9-.1-4.3-2.6-8.5-8.6-8.5h-5.6v17.5zm24 4.9V21.3h5.1v27.4h-5.1v-.1zm35.2 0h-6.1l-8-9.1h-5v9.1h-5.2V21.2h13c6.5 0 9.9 4.3 9.9 9.1 0 3.8-1.7 7.5-6.9 8.6l8.3 9.3v.4zm-19.1-22.5v8.8h7.9c3.3 0 4.7-2.2 4.7-4.4s-1.4-4.4-4.7-4.4h-7.9zM182 48.6h-20.5V21.2H182v5h-15.4v6.3h14.8v4.8h-14.8v6.2H182v5.1zm27.7-3.4c-2.8 2.8-6.5 4.1-10.4 4.1-10.2 0-14.5-7-14.5-14.1 0-7.2 4.6-14.4 14.5-14.4 3.7 0 7.2 1.4 10 4.2l-3.4 3.3c-1.8-1.8-4.2-2.6-6.6-2.6-6.6 0-9.5 4.9-9.4 9.5 0 4.5 2.7 9.3 9.4 9.3 2.4 0 5.1-1 6.9-2.8l3.5 3.5zM220.2 26h-8.7v-4.7H234V26h-8.7v22.7h-5.2V26h.1zm40.2 22.6l-3-6.7h-16.3l-3 6.7h-2.3l12.3-27.4h2.3l12.3 27.4h-2.3zm-3.8-8.6l-7.3-16.7-7.4 16.7h14.7zm32.7-5.4c.2 7-4.3 14-13.9 14h-9.3V21.3h9.3c9.3 0 13.7 6.6 13.9 13.3zm-21.1-11.3v23.3h7.2c8.1 0 11.9-6.1 11.8-12-.1-5.7-3.9-11.4-11.8-11.4h-7.2v.1zm47.8-2l-11.3 27.4h-2.3l-11.3-27.4h2.3l10.1 25 10.1-25h2.4zm6.9 12.6h16v1.9h-16v10.8h17.3v2h-19.3V21.3h18.9v2H323v10.6h-.1zm45 14.7h-2.8l-9.5-10.4h-7.5v10.4H346V21.3h12c5.9 0 9 4.3 9 8.5 0 4.5-2.9 8.4-8.9 8.4l9.8 10.4zm-19.7-12.3h9.7c4.8 0 6.9-2.7 6.9-6.5 0-3.2-2.1-6.5-6.7-6.5h-9.9v13zm32.1-13.1h-9.9v-1.9h21.9v1.9h-9.9v25.4h-2.1V23.2zM35 70c19.33 0 35-15.67 35-35S54.33 0 35 0 0 15.67 0 35s15.67 35 35 35z" fill="#3D3A71"/><path d="M35 0C15.7 0 0 15.7 0 35c0 1.2.1 2.4.2 3.5 2.1-1.3 4.2-2.8 6.2-4.8 8.1-8.1 11.8-11.8 19.5-11.8 4.4 0 7.5 1.2 10.8 3.7 2.5 1.9 5.2 4.6 8.7 8.1 9.4 9.3 21.6 9.7 23.5 9.7h.1c.7-2.7 1-5.6 1-8.5C70 15.7 54.3 0 35 0z" fill="#3D3A71"/><path d="M36.6 25.7c-5.4 1.1-9.1 4.8-15.8 11.5-6.4 6.4-14.1 8.6-18.9 9.3C1 44 .4 41.3.1 38.6c2.1-1.2 4.2-2.8 6.2-4.8C14.4 25.7 18.1 22 25.8 22c4.4-.1 7.5 1.1 10.8 3.7z" fill="#fff" fill-opacity=".26"/><path d="M69 43.5C65.2 58.7 51.4 70 35 70 19.7 70 6.7 60.2 1.9 46.5c4.9-.8 12.6-3 18.9-9.3 6.7-6.7 10.4-10.4 15.8-11.5 2.5 1.9 5.2 4.6 8.7 8.1 9.7 9.5 22.2 9.7 23.7 9.7z" fill="url(#paint0_linear_1_198)" fill-opacity=".6"/><path d="M59.9 37.1C51.8 29 48.1 25.3 40.4 25.3c-1.4 0-2.6.1-3.7.4 2.5 1.9 5.2 4.6 8.7 8.1 9.6 9.6 22.1 9.7 23.6 9.7-3.1-1.5-6.2-3.5-9.1-6.4z" fill="#fff" fill-opacity=".26"/></g><defs><linearGradient id="paint0_linear_1_198" x1="35.45" y1="25.7" x2="35.45" y2="70" gradientUnits="userSpaceOnUse"><stop offset=".125" stop-color="#fff"/><stop offset="1" stop-color="#fff" stop-opacity="0"/></linearGradient><clipPath id="clip0_1_198"><path fill="#fff" d="M0 0h392.3v70H0z"/></clipPath></defs></svg>