<svg width="130" height="42" fill="none" xmlns="http://www.w3.org/2000/svg"><path d="M45.248 26.626l-1.069.878c-.39.31-.815.573-1.268.784a8.742 8.742 0 01-1.507.564 8.336 8.336 0 01-2.065.195 5.605 5.605 0 01-2.217-.391 5.525 5.525 0 01-1.873-1.23 5.59 5.59 0 01-1.223-1.89 5.514 5.514 0 01-.372-2.208 5.81 5.81 0 01.797-3.283 5.637 5.637 0 012.392-1.982 12.594 12.594 0 013.764-1.034 64.267 64.267 0 014.696-.463v-.094c.04-.419-.047-.84-.248-1.212a2.181 2.181 0 00-.884-.88 7.914 7.914 0 00-3.397-.572c-.81.018-1.614.14-2.392.36-.915.25-1.81.565-2.679.941h-.494v-4.403c.574-.165 1.499-.353 2.775-.58 1.28-.22 2.576-.33 3.875-.33 3.19 0 5.517.526 6.985 1.568a5.537 5.537 0 011.675 2.127c.37.834.527 1.745.453 2.652v12.419h-5.724v-1.936zm0-2.828v-3.8c-.981.094-1.779.18-2.393.259a7.86 7.86 0 00-1.786.407 2.506 2.506 0 00-1.18.784 2.182 2.182 0 00-.422 1.402 1.996 1.996 0 00.709 1.795 3.696 3.696 0 002.081.485 3.786 3.786 0 001.54-.376 4.605 4.605 0 001.443-.956m26.926 4.764h-5.79v-1.904a23.74 23.74 0 01-1.283.98 8.596 8.596 0 01-1.26.783c-.44.206-.9.372-1.371.493a7.505 7.505 0 01-1.595.157 5.92 5.92 0 01-2.853-.653 5.802 5.802 0 01-2.17-1.932c-1.233-1.714-1.85-4.015-1.85-6.903-.03-1.407.183-2.808.63-4.145a9.638 9.638 0 011.73-3.048 7.455 7.455 0 012.416-1.849 6.924 6.924 0 013.046-.69 7.84 7.84 0 012.392.299c.748.258 1.475.57 2.177.932V3.278h5.789l-.008 25.284zm-5.79-5.038v-8.948a4.395 4.395 0 00-1.123-.352 6.134 6.134 0 00-1.189-.141 3.675 3.675 0 00-1.756.323 3.608 3.608 0 00-1.385 1.11 6.663 6.663 0 00-1.045 3.996 6.947 6.947 0 00.798 3.918c.31.42.725.753 1.206.966a3.07 3.07 0 001.537.248 4.35 4.35 0 001.539-.29c.51-.188.99-.452 1.419-.783m20.476 3.056l-1.069.877a6.37 6.37 0 01-1.26.784 8.574 8.574 0 01-1.515.564 8.312 8.312 0 01-2.057.195 5.621 5.621 0 01-2.221-.391 5.54 5.54 0 01-1.877-1.23 5.59 5.59 0 01-1.223-1.89 5.514 5.514 0 01-.372-2.208 5.871 5.871 0 01.797-3.283 5.637 5.637 0 012.392-1.982 12.665 12.665 0 013.756-1.034 64.706 64.706 0 014.696-.463v-.094a2.116 2.116 0 00-.246-1.213 2.165 2.165 0 00-.886-.879 7.913 7.913 0 00-3.397-.572c-.81.018-1.614.14-2.392.36-.92.251-1.82.565-2.695.941h-.502v-4.403c.574-.165 1.499-.353 2.775-.58 1.28-.22 2.576-.33 3.875-.33 3.19 0 5.517.523 6.985 1.568a5.54 5.54 0 011.71 2.118c.383.834.548 1.748.482 2.661v12.419h-5.756v-1.936zm0-2.829v-3.8c-.981.094-1.779.18-2.393.259a7.957 7.957 0 00-1.786.407 2.507 2.507 0 00-1.18.784 2.183 2.183 0 00-.422 1.402 1.99 1.99 0 00.112.982c.12.313.317.592.573.812a3.695 3.695 0 002.081.486 3.852 3.852 0 001.595-.353 4.63 4.63 0 001.435-.956m32.19 4.741V19.45c0-.901 0-1.661-.055-2.28a4.432 4.432 0 00-.295-1.504 1.635 1.635 0 00-.798-.854 3.583 3.583 0 00-2.775 0 9.77 9.77 0 00-1.403.783v12.967h-5.821V19.45c0-.893 0-1.645-.056-2.272a4.617 4.617 0 00-.311-1.512 1.574 1.574 0 00-.797-.854 3.482 3.482 0 00-2.838.055c-.46.226-.9.488-1.316.783v12.912h-5.789V10.314h5.789v2.014a15.376 15.376 0 012.679-1.849 5.906 5.906 0 012.823-.666 5.61 5.61 0 012.99.784 5.003 5.003 0 011.969 2.35 17.663 17.663 0 013.15-2.35 6.247 6.247 0 015.318-.415 4.56 4.56 0 011.738 1.214c.53.612.926 1.323 1.165 2.092.284 1.02.416 2.076.39 3.134v11.94h-5.757zM15.55 22.272a.5.5 0 00-.117.322v5.468a.5.5 0 00.5.5h5.7a.5.5 0 00.415-.778l-4.563-6.818a.5.5 0 00-.798-.044l-1.137 1.35zM9.91 3.2H4.5a.5.5 0 00-.5.5v24.362a.5.5 0 00.5.5h5.41a.5.5 0 00.5-.5V3.7a.5.5 0 00-.5-.5zm6.023 0a.5.5 0 00-.5.5v12.976a.5.5 0 00.888.315l5.66-6.978a.5.5 0 01.388-.185h5.86a.5.5 0 01.378.828l-6.014 6.947a.5.5 0 00-.03.615l7.192 10.243a.236.236 0 00.429-.135V3.7a.5.5 0 00-.5-.5H15.933zM6.696 35.728L7.128 37h.558l-1.38-4.044h-.624L4.302 37h.54l.42-1.272h1.434zM5.37 35.32l.396-1.17c.084-.246.144-.498.204-.732h.012c.06.234.12.474.21.738l.402 1.164H5.37zm6.211 1.668c.264.03.57.048.948.048.786 0 1.41-.204 1.794-.582.372-.372.582-.912.582-1.572 0-.654-.21-1.122-.576-1.452-.354-.324-.888-.504-1.638-.504a6.7 6.7 0 00-1.11.09v3.972zm.522-3.594c.138-.03.342-.054.612-.054 1.104 0 1.644.606 1.638 1.56 0 1.092-.6 1.716-1.722 1.716-.204 0-.396-.006-.528-.024v-3.198zM20.342 37l1.446-4.044h-.558l-.684 1.998a16.13 16.13 0 00-.462 1.506h-.012a25.609 25.609 0 00-.432-1.512l-.63-1.992h-.57L19.764 37h.576zm7.27-2.328h-1.567v-1.278h1.662v-.438h-2.19V37h2.28v-.438h-1.752v-1.458h1.566v-.432zM31.775 37h.522v-1.752h.492c.474.018.696.228.816.786.108.504.198.846.264.966h.54c-.084-.156-.18-.546-.312-1.11-.096-.42-.282-.708-.588-.816v-.018c.42-.144.756-.498.756-1.026 0-.318-.12-.594-.318-.774-.246-.222-.612-.33-1.17-.33-.354 0-.738.036-1.002.084V37zm.522-3.624a2.29 2.29 0 01.516-.042c.552 0 .93.228.93.75 0 .462-.354.768-.912.768h-.534v-1.476zM39.126 37h.528v-3.6h1.236v-.444h-2.994v.444h1.23V37zm5.508-4.044V37h.528v-4.044h-.528zm4.538 3.846c.216.144.642.264 1.032.264.954 0 1.41-.546 1.41-1.17 0-.594-.342-.924-1.026-1.188-.558-.216-.804-.402-.804-.78 0-.276.21-.606.762-.606.366 0 .636.114.762.192l.144-.426c-.174-.102-.48-.198-.888-.198-.786 0-1.308.468-1.308 1.098 0 .564.408.912 1.068 1.152.546.204.762.426.762.798 0 .408-.312.69-.846.69a1.77 1.77 0 01-.93-.264l-.138.438zm6.457-3.846V37h.528v-4.044h-.528zM60.862 37v-1.728c0-.672-.006-1.158-.036-1.668l.018-.006c.198.438.468.9.75 1.35L62.878 37h.528v-4.044h-.492v1.692c0 .63.012 1.122.06 1.662l-.018.006a11.34 11.34 0 00-.72-1.314l-1.29-2.046h-.576V37h.492zm9.841-2.124h-1.332v.42h.816v1.206c-.12.06-.354.108-.696.108-.948 0-1.56-.606-1.56-1.632 0-1.014.642-1.626 1.626-1.626.408 0 .678.072.894.174l.132-.426c-.174-.084-.546-.186-1.014-.186-1.356 0-2.19.882-2.19 2.088 0 .63.216 1.17.564 1.506.396.378.9.534 1.512.534.546 0 1.014-.132 1.248-.222v-1.944zM79.862 37v-1.728c0-.672-.006-1.158-.036-1.668l.018-.006c.198.438.468.9.75 1.35L81.878 37h.528v-4.044h-.492v1.692c0 .63.012 1.122.06 1.662l-.018.006a11.34 11.34 0 00-.72-1.314l-1.29-2.046h-.576V37h.492zm8.845-2.328H87.14v-1.278h1.662v-.438h-2.19V37h2.28v-.438H87.14v-1.458h1.566v-.432zM93.734 37h.528v-3.6h1.236v-.444h-2.994v.444h1.23V37zm6.961 0l.576-2.106c.15-.522.246-.918.312-1.32h.012c.054.408.138.804.264 1.32l.51 2.106h.546l1.146-4.044h-.534l-.534 2.04c-.126.504-.24.954-.324 1.398h-.012a15.81 15.81 0 00-.282-1.386l-.492-2.052h-.546l-.54 2.04c-.138.522-.264 1.002-.33 1.404h-.012c-.072-.39-.18-.894-.3-1.398l-.48-2.046h-.552L100.148 37h.546zm8.8-4.116c-1.08 0-1.872.84-1.872 2.124 0 1.224.744 2.058 1.818 2.058 1.032 0 1.878-.744 1.878-2.13 0-1.206-.714-2.052-1.824-2.052zm-.018.426c.87 0 1.29.84 1.29 1.65 0 .918-.468 1.68-1.296 1.68-.828 0-1.296-.774-1.296-1.644 0-.882.432-1.686 1.302-1.686zM115.3 37h.522v-1.752h.492c.474.018.696.228.816.786.108.504.198.846.264.966h.54c-.084-.156-.18-.546-.312-1.11-.096-.42-.282-.708-.588-.816v-.018c.42-.144.756-.498.756-1.026 0-.318-.12-.594-.318-.774-.246-.222-.612-.33-1.17-.33-.354 0-.738.036-1.002.084V37zm.522-3.624a2.29 2.29 0 01.516-.042c.552 0 .93.228.93.75 0 .462-.354.768-.912.768h-.534v-1.476zM121.828 37h.522v-1.542l.39-.444L124.066 37h.618l-1.578-2.328 1.464-1.716h-.648l-1.236 1.518a10.2 10.2 0 00-.318.432h-.018v-1.95h-.522V37z" fill="#3D3A71"/></svg>