<svg width="246" height="34" fill="none" xmlns="http://www.w3.org/2000/svg"><path d="M227.42 9.238h-5.679v8.001l-7.824-8h-5.742v15.536h5.71v-8.063l7.856 8.032v.031h5.679V9.238zm-51.367 0h5.709v15.535h-5.709l-7.855-8.062v8.062h-5.709V9.238h5.773l7.791 8v-8zm15.073 15.535h-7.441V9.245h5.959v10.661h8.923v4.867h-7.441z" fill="#3D3A71"/><path fill-rule="evenodd" clip-rule="evenodd" d="M200.491 16.975v7.798h5.761V9.238h-5.761v7.737z" fill="#3D3A71"/><path d="M150.921 8.905c-4.118 0-10.041 1.494-10.041 8.126s5.955 8.064 10.041 8.064c4.117 0 10.04-1.432 10.04-8.064.032-6.632-5.923-8.095-10.04-8.126zm0 11.364c-1.806 0-4.403-.592-4.403-3.27 0-2.677 2.597-3.268 4.403-3.268 1.805 0 4.402.622 4.402 3.269 0 2.709-2.597 3.269-4.402 3.269zM246 18.789v-3.566h-10.947v-2.198H246V9.237h-16.657v15.537H246v-3.788h-10.947V18.79H246z" fill="#3D3A71"/><path fill-rule="evenodd" clip-rule="evenodd" d="M14.888 19.772H5.721V9.238H0v15.537h14.888v-5.003zm56.137-3.052l7.618-7.457h-7.08l-7.144 6.93v-6.96h-5.721v15.536h5.72v-7.675l3.035 3.107v.031l4.394 4.537h6.986l-7.808-8.048zM35.656 9.238h-5.753v8.235c-.063 2.237-2.339 2.796-3.92 2.796-1.58 0-3.856-.497-3.92-2.796V9.238h-5.752v8.234c0 6.277 5.721 7.613 9.64 7.613 3.92 0 9.642-1.522 9.642-7.644V9.238h.063z" fill="#3D3A71"/><path fill-rule="evenodd" clip-rule="evenodd" d="M100.138 9.264h-6.986l-4.963 5.282-4.93-5.282H76.24l9.072 9.85v5.655h5.721v-5.593l9.104-9.912zM51.39 18.152c-.634 1.681-2.724 2.148-4.213 2.148-1.805 0-4.434-.56-4.434-3.27 0-2.708 2.629-3.3 4.434-3.3 1.457 0 3.421.374 4.15 1.9h5.859c-.76-5.48-6.176-6.725-9.977-6.725-4.117 0-10.104 1.463-10.104 8.126 0 6.663 5.987 8.064 10.072 8.064 3.864 0 9.376-1.432 10.009-6.974H51.39v.03z" fill="#3D3A71"/><path d="M120.26 5.74V.002l-13.967 9.166.021 5.739 13.946-9.169z" fill="#3D3A71"/><path d="M120.26 18.528v5.747L106.293 15.1l.021-5.74 13.946 9.169zm13.944-9.359l-.021 5.739-13.942-9.169.021-5.739 13.942 9.169zM120.259 28.25V34l-13.966-9.18.021-5.742 13.945 9.171zm13.966-3.43l-.021-5.743-13.942 9.171V34l13.963-9.18z" fill="#3D3A71"/><path d="M134.225 15.1l-.021-5.74-13.942 9.17v5.753l13.963-9.183z" fill="#3D3A71"/></svg>