<svg width="523" height="98" fill="none" xmlns="http://www.w3.org/2000/svg"><g clip-path="url(#clip0_2_277)" fill="#3D3A71"><path d="M133.79 67.99l-.04-52.28-6.99.01.05 58.95 39.95-.03-.01-6.67-32.96.02zm72.04-37.11v25.07a12.842 12.842 0 01-3.63 9.48 12.144 12.144 0 01-9.14 3.71c-3.67 0-6.45-1.08-8.48-3.3-2.03-2.22-3.08-5.33-3.09-9.23V30.9h-6.75v26.43c0 5.32 1.61 9.73 4.76 13.11 3.15 3.38 7.55 5.13 13 5.13A17.21 17.21 0 00205.87 70v4.6h6.75V30.89l-6.79-.01zm51.55 31.62c-3.86 4.32-8.07 6.51-12.49 6.52A14.356 14.356 0 01234 64.3a16.12 16.12 0 01-4.51-11.58 16.161 16.161 0 014.46-11.55 13.867 13.867 0 0110.63-4.77c4.28 0 8.53 2.12 12.62 6.3l1 1 4.64-4.79L262 38a22.37 22.37 0 00-17.32-8.08 21.149 21.149 0 00-15.8 6.74 22.49 22.49 0 00-6.44 16.1 22.551 22.551 0 006.43 16.13 21.223 21.223 0 0015.83 6.67c6.76 0 12.72-2.9 17.73-8.59l.93-1.06-5-4.43-.98 1.02zm54.32-31.44l-9.18.01-23.31 24.16-.04-41.78-6.75.01.05 61.35h6.76l-.01-10.77 8.41-8.51 15.65 19.26 8.6-.01-19.53-24.07 19.35-19.65zm44.69-.06l-13.87 34.47-16-34.41h-7.72l20.38 42.08a20.105 20.105 0 01-4 6.4 6.42 6.42 0 01-4.57 1.79 14.331 14.331 0 01-6.37-1.33l-1.37-.66-2.42 6.13 1.25.55a21.541 21.541 0 008.65 1.87 13.16 13.16 0 008.63-3c2.37-2 4.42-5.06 6.29-9.49L363.79 31h-7.4zM43.56 48.52L25.1 30.06a6.65 6.65 0 00-9.39 0L1.94 43.83a6.64 6.64 0 000 9.38L15.71 67a6.65 6.65 0 009.39 0l18.46-18.48zm51.52 4.69a6.64 6.64 0 000-9.38L81.31 30.06a6.63 6.63 0 00-9.38 0L53.47 48.52 71.93 67a6.63 6.63 0 009.38 0l13.77-13.79zM67 81.27a6.65 6.65 0 000-9.37L48.51 53.47 30 71.89a6.62 6.62 0 000 9.39l13.79 13.8A6.611 6.611 0 0048.5 97a6.629 6.629 0 004.7-2L67 81.27zM28.11 20.4a6.601 6.601 0 001.94 4.69l18.46 18.46L67 25.09a6.62 6.62 0 000-9.38L53.21 1.94a6.65 6.65 0 00-9.39 0L30.05 15.71a6.6 6.6 0 00-1.94 4.69zm370.25-4.76L371 75h7.4l7.12-15.72h31.33L424 74.93h7.64l-27.5-59.29h-5.78zm-9.83 37.06L401.17 25l12.63 27.68-25.27.02zm84.54-39.13v23.74a19.913 19.913 0 00-15.43-7 20.626 20.626 0 00-14.85 6.35c-4.26 4.21-6.42 9.76-6.41 16.47.01 6.71 2.17 12.33 6.45 16.51a20.66 20.66 0 0014.83 6.27c6 0 11.18-2.48 15.44-7.37v6.4h6.71l-.06-61.32-6.68-.05zm.28 39.4a15.74 15.74 0 01-4.6 11.73 14.566 14.566 0 01-10.68 4.62 13.693 13.693 0 01-10.34-4.46c-2.9-3-4.31-6.87-4.31-11.78 0-4.91 1.4-9 4.17-11.92A13.777 13.777 0 01458 36.81a14.614 14.614 0 0110.68 4.56A15.523 15.523 0 01473.35 53v-.03zm43.7.22a25.987 25.987 0 00-4.38-2.2c-1.3-.48-3-1-5.08-1.63-1.51-.43-2.63-.77-3.44-1a29.69 29.69 0 01-2.84-1.11c-.832-.34-1.62-.776-2.35-1.3a5.396 5.396 0 01-1.27-1.47 3.175 3.175 0 01-.48-1.69 5.007 5.007 0 012-4.16 9.16 9.16 0 015.87-1.75 21.27 21.27 0 0111.81 3.85l1.18.78 3.57-5.64-1.13-.75a27.193 27.193 0 00-15.26-4.71 15.94 15.94 0 00-10.59 3.5 11.552 11.552 0 00-4.26 9.21 9.492 9.492 0 001.09 4.54c.588 1.15 1.354 2.2 2.27 3.11a13.123 13.123 0 003.8 2.35 33.632 33.632 0 003.77 1.5c.86.27 2.21.66 4.12 1.21a33.064 33.064 0 017.72 3.05 4.08 4.08 0 012.11 3.79 5.574 5.574 0 01-2.28 4.64 9.811 9.811 0 01-6.21 1.88A22.391 22.391 0 01493 64.12l-1.12-.86-4 5.34 1 .83a28.35 28.35 0 008.22 4.51 27.59 27.59 0 009.39 1.72c3.957.118 7.83-1.16 10.94-3.61a11.998 11.998 0 004.55-9.74 10.735 10.735 0 00-1.16-5.31 10.411 10.411 0 00-3.77-3.81z"/></g><defs><clipPath id="clip0_2_277"><path fill="#fff" d="M0 0h522.08v97.02H0z"/></clipPath></defs></svg>