<svg width="70" height="37" fill="none" xmlns="http://www.w3.org/2000/svg"><path d="M44.98 4.776l-3.71 1.55 9.576 5.486 3.193-1.829-9.059-5.207z" fill="#3D3A71"/><path d="M47.654 9.983l3.192 1.829L70 .8 47.654 9.983z" fill="#3D3A71"/><path fill-rule="evenodd" clip-rule="evenodd" d="M42.39 36a10.57 10.57 0 003.536-5H70v5H42.39zm-13.062 0c-1.485-1.172-2.612-2.806-3.757-5H0v5h29.328zm37.49-30.149v6.32a8.44 8.44 0 00-5.37-1.932c-4.732 0-8.55 3.864-8.55 8.653 0 4.79 3.818 8.654 8.55 8.654a8.44 8.44 0 005.37-1.932v1.73H70V4l-3.182 1.851zm-5.37 18.475c-2.982 0-5.368-2.415-5.368-5.434 0-3.018 2.386-5.433 5.369-5.433 2.983 0 5.37 2.415 5.37 5.433 0 2.979-2.387 5.434-5.37 5.434zM13.524 13.578a6.304 6.304 0 015.568-3.34c3.5 0 6.363 2.857 6.363 6.44v10.666h-3.181V17.281c0-2.213-1.79-4.025-3.978-4.025-2.187 0-3.977 1.812-3.977 4.025v10.063h-3.182V17.281c0-2.213-1.79-4.025-3.977-4.025s-3.977 1.812-3.977 4.025v10.063H0V10.44h3.182v1.972a6.307 6.307 0 014.773-2.174c2.386 0 4.494 1.369 5.568 3.341zm37.386 13.77h-3.182V13.26l3.182 1.891v12.197zm-9.546-15.175V9.556l3.182 1.852v15.255c0 4.79-3.818 8.653-8.551 8.653-3.142 0-5.887-1.73-7.358-4.266l2.744-1.57c.955 1.57 2.665 2.616 4.614 2.616 2.983 0 5.37-2.415 5.37-5.433v-1.047a8.44 8.44 0 01-5.37 1.932c-4.733 0-8.551-3.864-8.551-8.654s3.818-8.653 8.55-8.653a8.44 8.44 0 015.37 1.932zm-10.738 6.721c0 3.02 2.386 5.434 5.369 5.434 2.983 0 5.37-2.455 5.37-5.434 0-3.018-2.387-5.433-5.37-5.433s-5.37 2.415-5.37 5.433z" fill="#3D3A71"/></svg>