<svg width="353" height="127" fill="none" xmlns="http://www.w3.org/2000/svg"><path d="M136.4 93.1l-.1-.6s-9.5-57.3-9.8-59.1c-.4-2-1.4-2.6-2.7-2.6h-.1c-1.2 0-2 .4-2.8 2.5-.5 1.3-17.2 47.8-17.2 47.8s-.2.7-1 .7-1-.8-1-.8S85 34.5 84.5 33.2c-.8-2.2-1.6-2.5-2.8-2.5h-.1c-1.3 0-2.3.6-2.7 2.6-.4 1.8-9.8 59.1-9.8 59.1l-.1.7v.4c0 1.9 1.6 3.5 3.5 3.6h.2c1.7 0 3.1-1.3 3.4-3H76l.1-.1L82 52.3s.1-1.2 1.1-1.2 1.4 1.3 1.4 1.3l15.4 42.4.1.2c.4 1.1 1.3 1.8 2.8 1.8 1.6 0 2.4-.8 2.8-1.8l.1-.2L121 52.4s.4-1.3 1.4-1.3c.9 0 1.1 1.2 1.1 1.2l5.9 41.6.1.1h-.1c.3 1.7 1.7 2.9 3.4 3h.2c1.9 0 3.5-1.6 3.5-3.6-.1-.1-.1-.2-.1-.3zm-80-8.7c.6.6.9 1.5 1 2.4 0 1.8-1.4 2.8-1.4 2.8-6 5-13.3 7.4-20.8 7.4C16.8 97 2 82.4 2 64s14.8-33.2 33.2-33.2c8.4 0 14.8 2.7 20.5 7.1l.4.3c.9.8 1.2 1.6 1.2 2.6 0 0 0 1.2-.9 2.4l-.1.1c-1 .9-2.4 1-2.4 1-.7 0-1.4-.2-1.9-.6-.1-.1-.4-.3-.4-.3-4.6-3.6-10.6-5.9-16.4-5.9C20.7 37.5 9.5 49.7 9.5 64c0 14.2 11.1 26.4 25.7 26.4 7.4 0 11.8-2.8 16.5-6.1 2.1-1.5 3.8-.6 4.4-.1" fill="#3D3A71"/><g filter="url(#filter0_d_2_293)"><path d="M156.7 82.1c-.6-.3-.6-1-.6-1V34c-.1-1.8-1.6-3.2-3.4-3.3h-.2c-1.9 0-3.3 1.5-3.4 3.4v59.3c0 1.9 1.5 3.5 3.5 3.5 1 0 1.9-.4 2.6-1.1L194.3 46s.6-.6 1.3-.4c.7.3.7 1.1.7 1.1v47c.1 1.8 1.6 3.2 3.4 3.3h.2c1.9 0 3.3-1.5 3.4-3.4V34.2c0-1.9-1.5-3.5-3.5-3.5-1 0-2 .4-2.6 1.1-9.8 12.6-39.2 49.9-39.2 49.9s-.4.7-1.3.4z" fill="#3D3A71"/><path d="M156.476 82.547l.032.016.034.011c.605.202 1.087.072 1.417-.142a1.562 1.562 0 00.435-.42l.016-.024.004-.006.063-.08.248-.314.95-1.206 3.465-4.398c2.909-3.694 6.89-8.75 11.178-14.2 8.57-10.894 18.365-23.363 23.269-29.667.49-.565 1.336-.917 2.213-.917 1.715 0 3 1.367 3 3v59.386c-.093 1.663-1.303 2.914-2.9 2.914h-.186c-1.553-.093-2.823-1.298-2.914-2.814V46.7h-.487.487v0-.024l-.002-.041a1.931 1.931 0 00-.116-.545 1.615 1.615 0 00-.885-.95l-.029-.012-.031-.009c-.521-.149-.984.007-1.282.163a2.314 2.314 0 00-.462.321l-.031.028-.009.01-.004.003-.001.001h-.001v.001l.353.354-.353-.354-.022.022-.018.023-39.081 49.776c-.609.6-1.377.933-2.226.933-1.714 0-3-1.367-3-3V34.113c.093-1.662 1.303-2.913 2.9-2.913h.186c1.554.093 2.823 1.298 2.914 2.814V81.1h.45-.45 0v.022l.002.038a1.858 1.858 0 00.102.494c.103.291.321.668.772.893z" stroke="#000"/></g><path d="M349.7 63.9c0 33.7-27.3 61-61 61s-61-27.3-61-61 27.3-61 61-61 61 27.3 61 61z" fill="#3D3A71"/><path d="M305.8 90.8h-24.5s-.6.1-1-.6.1-1.2.1-1.2 11.2-12 16.8-17.9c6.6-7.1 12-13.4 12-21.8 0-9.8-7-18.5-20.8-18.5-8.9 0-15 5.7-17.3 8.3l-.2.2c-.4.6-.7 1.3-.7 2 0 .9.4 1.7.9 2.3l.1.1c.6.5 1.3.8 2.1.8.9 0 1.7-.4 2.3-1 3-3 7.3-6.2 12.6-6.2 9.9 0 13.5 6.7 13.5 12.2 0 4.5-3.2 10.3-9.7 17.4-7.6 8.2-15.1 16.4-22.8 24.6l-.2.2c-.2.3-.4.6-.5.9-.1.4-.2.7-.2 1.1 0 .4.1.8.2 1.1.5 1.2 1.5 2.1 2.9 2.1h34.3c1.6-.1 2.9-1.4 3-3v-.3c-.1-1.5-1.3-2.8-2.9-2.8z" fill="#fff"/><defs><filter id="filter0_d_2_293" x="145.1" y="30.7" width="62.2" height="74.3" filterUnits="userSpaceOnUse" color-interpolation-filters="sRGB"><feFlood flood-opacity="0" result="BackgroundImageFix"/><feColorMatrix in="SourceAlpha" values="0 0 0 0 0 0 0 0 0 0 0 0 0 0 0 0 0 0 127 0" result="hardAlpha"/><feOffset dy="4"/><feGaussianBlur stdDeviation="2"/><feComposite in2="hardAlpha" operator="out"/><feColorMatrix values="0 0 0 0 0 0 0 0 0 0 0 0 0 0 0 0 0 0 0.25 0"/><feBlend in2="BackgroundImageFix" result="effect1_dropShadow_2_293"/><feBlend in="SourceGraphic" in2="effect1_dropShadow_2_293" result="shape"/></filter></defs></svg>