<svg width="100" height="100" viewBox="0 0 200 200" fill="none" xmlns="http://www.w3.org/2000/svg"><path fill-rule="evenodd" clip-rule="evenodd" d="M192.383 199.986H7.574a7.593 7.593 0 01-7.592-7.593V7.571a7.59 7.59 0 017.592-7.59h184.809a7.59 7.59 0 017.592 7.59v184.822a7.593 7.593 0 01-7.592 7.593z" fill="#3D3A71"/><path d="M156.804 62.886H141.07c-.674 0-1.219.536-1.219 1.196v71.792c0 .655.545 1.191 1.219 1.191h15.734c.668 0 1.221-.536 1.221-1.191V64.082c0-.66-.553-1.196-1.221-1.196zm-53.722 0H43.149c-.674 0-1.215.536-1.215 1.196v71.792c0 .655.541 1.191 1.215 1.191h15.738c.67 0 1.225-.536 1.225-1.191V79.528c0-.65.541-1.19 1.215-1.19h33.9c9.533 0 12.239 7.301 12.239 12.012v45.524c0 .655.548 1.191 1.221 1.191h15.729c.669 0 1.219-.536 1.219-1.191v-50.93c0-4.2-.506-10.241-5.926-15.558-5.67-5.55-10.844-6.5-16.627-6.5" fill="#fff"/><path d="M92.058 91.481H75.535c-.673 0-1.226.536-1.226 1.192v43.207c0 .653.553 1.189 1.226 1.189h16.523c.668 0 1.215-.536 1.215-1.189V92.673c0-.656-.547-1.192-1.215-1.192z" fill="#fff"/></svg>