<svg width="63" height="63" fill="none" xmlns="http://www.w3.org/2000/svg"><path d="M57.256 20.235v32.357h-7.444a2.482 2.482 0 00-2.482 2.48v2.482H8.87a3.722 3.722 0 01-3.723-3.722V40.185h16.13l-3.723-3.722v-8.685a2.482 2.482 0 00-2.481-2.481H5.147V15.37H41.4v1.861c3.25 1.861 2.283.943 4.082 4.082h2.99l2.58 1.501 2.593-1.513h2.99l.62-1.067z" fill="url(#paint0_linear_886_6840)"/><path d="M41.4 9.056l-1.514 2.593c1.836 3.14 1.514 2.345 1.514 3.722H5.147V9.168A3.722 3.722 0 018.87 5.446h33.598l-1.08.62.013 2.99z" fill="#B4CDE1"/><path d="M60.704 14.242v2.99l-2.58 1.49-1.489 2.592h-2.99l-2.593 1.501-2.593-1.513h-2.99c-1.861-3.151-.893-2.209-4.082-4.07v-2.99c-.298-.496 0 0-1.514-2.593l1.514-2.593v-2.99l2.593-1.488 1.489-2.593h2.99L51.052.483l2.593 1.514h2.99l1.489 2.593 2.593 1.489v2.99l1.501 2.58-1.514 2.593z" fill="url(#paint1_linear_886_6840)"/><path d="M48.57 16.612a1.24 1.24 0 01-1.03-1.923l4.964-7.444a1.24 1.24 0 012.06 1.365c-5.398 8.101-5.1 8.002-5.993 8.002zm8.685-1.861a1.86 1.86 0 11-3.722 0 1.86 1.86 0 013.722 0zM48.57 8.548a1.861 1.861 0 11-3.721 0 1.861 1.861 0 013.722 0z" fill="#F0F7FC"/><path d="M12.591 10.409a1.24 1.24 0 11-2.481 0 1.24 1.24 0 012.481 0z" fill="#0668CB"/><path d="M18.795 10.409a1.24 1.24 0 11-2.482 0 1.24 1.24 0 012.482 0z" fill="#54A5FF"/><path d="M24.998 10.409a1.241 1.241 0 11-2.482 0 1.241 1.241 0 012.482 0z" fill="#F0F7FC"/><path d="M16.313 48.87c0 .905-.421.942-4.28 3.51a1.241 1.241 0 01-1.24.063c-.87-.447-.658-.894-.658-6.055a1.242 1.242 0 011.923-1.03c3.908 2.63 4.255 2.643 4.255 3.512z" fill="url(#paint2_linear_886_6840)"/><path d="M38.645 47.629v2.481h-18.61a1.24 1.24 0 010-2.481h18.61z" fill="#8AD3FE"/><path d="M51.052 50.11H38.645v-2.48h12.407a1.24 1.24 0 110 2.481z" fill="#B4CDE1"/><path d="M41.127 47.629v2.481a1.24 1.24 0 11-2.482 0v-2.48a1.24 1.24 0 112.482 0z" fill="#54A5FF"/><path d="M59.737 52.592H49.81a2.481 2.481 0 00-2.48 2.48v4.963c0 1.37 1.11 2.482 2.48 2.482h9.926a2.481 2.481 0 002.481-2.482v-4.962a2.48 2.48 0 00-2.481-2.481z" fill="url(#paint3_linear_886_6840)"/><path d="M57.256 58.795h-4.963a1.24 1.24 0 010-2.482h4.963a1.24 1.24 0 010 2.482z" fill="#F0F7FC"/><path d="M21.276 40.185H2.666a2.482 2.482 0 01-2.481-2.482v-9.925a2.481 2.481 0 012.48-2.481h12.408a2.481 2.481 0 012.481 2.481v8.685l3.722 3.722z" fill="url(#paint4_linear_886_6840)"/><path d="M12.591 31.5H5.147a1.24 1.24 0 110-2.481h7.444a1.24 1.24 0 110 2.481z" fill="url(#paint5_linear_886_6840)"/><path d="M12.591 36.463H5.147a1.241 1.241 0 010-2.482h7.444a1.24 1.24 0 110 2.482z" fill="url(#paint6_linear_886_6840)"/><path fill-rule="evenodd" clip-rule="evenodd" d="M35.68 23.535a6.724 6.724 0 01-5.608 3.002H28.72v7.444h1.352a6.725 6.725 0 015.608 3.003 1.625 1.625 0 002.965-.893V24.428a1.625 1.625 0 00-2.965-.893zm-6.96 16.65c-.894 0-1-.269-2.404-3.864a439.51 439.51 0 00-.962-2.446 3.721 3.721 0 01.885-7.338h2.481v7.444h-.648l1.802 4.504a1.24 1.24 0 01-1.154 1.7z" fill="url(#paint7_linear_886_6840)"/><defs><linearGradient id="paint0_linear_886_6840" x1="5.147" y1="36.463" x2="57.256" y2="36.463" gradientUnits="userSpaceOnUse"><stop stop-color="#C9DFF1"/><stop offset="1" stop-color="#F0F7FC"/></linearGradient><linearGradient id="paint1_linear_886_6840" x1="71.44" y1="-10.698" x2="39.119" y2="8.598" gradientUnits="userSpaceOnUse"><stop stop-color="#FF9B75"/><stop offset="1" stop-color="#FF3B72"/></linearGradient><linearGradient id="paint2_linear_886_6840" x1="9.483" y1="52.58" x2="16.313" y2="48.867" gradientUnits="userSpaceOnUse"><stop stop-color="#4F63DB"/><stop offset="1" stop-color="#8492E8"/></linearGradient><linearGradient id="paint3_linear_886_6840" x1="47.33" y1="57.554" x2="62.218" y2="57.554" gradientUnits="userSpaceOnUse"><stop stop-color="#4F63DB"/><stop offset="1" stop-color="#8492E8"/></linearGradient><linearGradient id="paint4_linear_886_6840" x1="29.981" y1="17.842" x2="5.844" y2="38.245" gradientUnits="userSpaceOnUse"><stop stop-color="#FF9B75"/><stop offset="1" stop-color="#FF3B72"/></linearGradient><linearGradient id="paint5_linear_886_6840" x1="103.26" y1="105.94" x2="182.464" y2="105.94" gradientUnits="userSpaceOnUse"><stop stop-color="#D3E6F5"/><stop offset="1" stop-color="#F0F7FC"/></linearGradient><linearGradient id="paint6_linear_886_6840" x1="103.26" y1="120.828" x2="182.464" y2="120.828" gradientUnits="userSpaceOnUse"><stop stop-color="#D3E6F5"/><stop offset="1" stop-color="#F0F7FC"/></linearGradient><linearGradient id="paint7_linear_886_6840" x1="22.517" y1="31.507" x2="38.645" y2="31.507" gradientUnits="userSpaceOnUse"><stop stop-color="#4F63DB"/><stop offset="1" stop-color="#8492E8"/></linearGradient></defs></svg>