<svg width="63" height="63" fill="none" xmlns="http://www.w3.org/2000/svg"><path d="M53.533 20.473V15.51a1.24 1.24 0 112.481 0v4.963a1.241 1.241 0 01-2.48 0z" fill="#FFB369"/><path d="M53.533 20.473V15.51a1.24 1.24 0 112.481 0v4.963a1.241 1.241 0 01-2.48 0z" fill="url(#paint0_linear_886_6882)"/><path d="M53.533 47.767v-4.962a1.24 1.24 0 112.481 0v4.962a1.24 1.24 0 11-2.48 0z" fill="#FFB369"/><path d="M53.533 47.767v-4.962a1.24 1.24 0 112.481 0v4.962a1.24 1.24 0 11-2.48 0z" fill="url(#paint1_linear_886_6882)"/><path d="M32.442.622H7.629A7.444 7.444 0 00.185 8.066v47.145a7.444 7.444 0 007.444 7.445h24.813a7.444 7.444 0 007.444-7.444V8.066A7.444 7.444 0 0032.442.622z" fill="url(#paint2_linear_886_6882)"/><path d="M34.501 6.676c-.968-1.414-2.06-1.091-7.022-1.091-1.55 3.027-.645 2.481-12.109 2.481-1.75 0-2.258-1.464-2.779-2.481-5.31 0-5.52-.137-6.352.421a2.481 2.481 0 00-1.092 2.06v43.423c0 2.817-.496 5.15 1.514 6.005.67.286-1.378.199 25.78.199a2.48 2.48 0 002.482-2.481c0-51.104.211-47.593-.422-48.536z" fill="url(#paint3_linear_886_6882)"/><path d="M54.774 15.51a7.444 7.444 0 100-14.888 7.444 7.444 0 000 14.888z" fill="url(#paint4_linear_886_6882)"/><path d="M54.774 9.307a2.481 2.481 0 100-4.963 2.481 2.481 0 000 4.963z" fill="url(#paint5_linear_886_6882)"/><path d="M59.414 13.885a7.444 7.444 0 01-9.28 0l.186-.93a4.553 4.553 0 018.908 0l.186.93z" fill="url(#paint6_linear_886_6882)"/><path d="M54.774 39.083a7.444 7.444 0 100-14.888 7.444 7.444 0 000 14.888z" fill="url(#paint7_linear_886_6882)"/><path d="M54.774 32.88a2.481 2.481 0 100-4.963 2.481 2.481 0 000 4.962z" fill="url(#paint8_linear_886_6882)"/><path d="M59.414 37.458a7.444 7.444 0 01-9.28 0l.186-.931a4.553 4.553 0 018.908 0l.186.93z" fill="url(#paint9_linear_886_6882)"/><path d="M54.774 62.656a7.444 7.444 0 100-14.889 7.444 7.444 0 000 14.889z" fill="url(#paint10_linear_886_6882)"/><path d="M54.774 56.452a2.481 2.481 0 100-4.963 2.481 2.481 0 000 4.963z" fill="url(#paint11_linear_886_6882)"/><path d="M59.414 61.03a7.444 7.444 0 01-9.28 0l.186-.93a4.554 4.554 0 018.908 0l.186.93z" fill="url(#paint12_linear_886_6882)"/><path d="M47.33 32.88H32.442a1.24 1.24 0 110-2.482H47.33a1.241 1.241 0 010 2.481z" fill="url(#paint13_linear_886_6882)"/><path fill-rule="evenodd" clip-rule="evenodd" d="M24.514 23.674a6.723 6.723 0 01-5.608 3.002h-3.833a3.722 3.722 0 00-.885 7.337c.378.952.694 1.76.962 2.447 1.405 3.595 1.51 3.863 2.404 3.863a1.24 1.24 0 001.154-1.7l-1.802-4.503h2a6.723 6.723 0 015.608 3.003 1.625 1.625 0 002.965-.894V24.567a1.626 1.626 0 00-2.965-.893z" fill="url(#paint14_linear_886_6882)"/><defs><linearGradient id="paint0_linear_886_6882" x1="57.039" y1="10.542" x2="52.355" y2="11.474" gradientUnits="userSpaceOnUse"><stop stop-color="#FF9B75"/><stop offset="1" stop-color="#FF3B72"/></linearGradient><linearGradient id="paint1_linear_886_6882" x1="57.039" y1="37.837" x2="52.355" y2="38.768" gradientUnits="userSpaceOnUse"><stop stop-color="#FF9B75"/><stop offset="1" stop-color="#FF3B72"/></linearGradient><linearGradient id="paint2_linear_886_6882" x1="1.865" y1="62.656" x2="34.425" y2="2.452" gradientUnits="userSpaceOnUse"><stop stop-color="#4F63DB"/><stop offset="1" stop-color="#8492E8"/></linearGradient><linearGradient id="paint3_linear_886_6882" x1="5.097" y1="31.626" x2="34.96" y2="31.626" gradientUnits="userSpaceOnUse"><stop stop-color="#D3E6F5"/><stop offset="1" stop-color="#F0F7FC"/></linearGradient><linearGradient id="paint4_linear_886_6882" x1="68.363" y1="-6.832" x2="46.821" y2="6.021" gradientUnits="userSpaceOnUse"><stop stop-color="#FF9B75"/><stop offset="1" stop-color="#FF3B72"/></linearGradient><linearGradient id="paint5_linear_886_6882" x1="295.464" y1="63.896" x2="315.315" y2="63.896" gradientUnits="userSpaceOnUse"><stop stop-color="#D3E6F5"/><stop offset="1" stop-color="#F0F7FC"/></linearGradient><linearGradient id="paint6_linear_886_6882" x1="488.717" y1="111.071" x2="558.133" y2="111.071" gradientUnits="userSpaceOnUse"><stop stop-color="#D3E6F5"/><stop offset="1" stop-color="#F0F7FC"/></linearGradient><linearGradient id="paint7_linear_886_6882" x1="68.363" y1="16.74" x2="46.821" y2="29.594" gradientUnits="userSpaceOnUse"><stop stop-color="#FF9B75"/><stop offset="1" stop-color="#FF3B72"/></linearGradient><linearGradient id="paint8_linear_886_6882" x1="295.464" y1="181.76" x2="315.315" y2="181.76" gradientUnits="userSpaceOnUse"><stop stop-color="#D3E6F5"/><stop offset="1" stop-color="#F0F7FC"/></linearGradient><linearGradient id="paint9_linear_886_6882" x1="488.717" y1="251.71" x2="558.133" y2="251.71" gradientUnits="userSpaceOnUse"><stop stop-color="#D3E6F5"/><stop offset="1" stop-color="#F0F7FC"/></linearGradient><linearGradient id="paint10_linear_886_6882" x1="68.363" y1="40.313" x2="46.821" y2="53.166" gradientUnits="userSpaceOnUse"><stop stop-color="#FF9B75"/><stop offset="1" stop-color="#FF3B72"/></linearGradient><linearGradient id="paint11_linear_886_6882" x1="295.464" y1="299.624" x2="315.315" y2="299.624" gradientUnits="userSpaceOnUse"><stop stop-color="#D3E6F5"/><stop offset="1" stop-color="#F0F7FC"/></linearGradient><linearGradient id="paint12_linear_886_6882" x1="488.717" y1="392.348" x2="558.133" y2="392.348" gradientUnits="userSpaceOnUse"><stop stop-color="#D3E6F5"/><stop offset="1" stop-color="#F0F7FC"/></linearGradient><linearGradient id="paint13_linear_886_6882" x1="55.739" y1="29.156" x2="55.221" y2="32.277" gradientUnits="userSpaceOnUse"><stop stop-color="#FF9B75"/><stop offset="1" stop-color="#FF3B72"/></linearGradient><linearGradient id="paint14_linear_886_6882" x1="11.351" y1="31.646" x2="27.479" y2="31.646" gradientUnits="userSpaceOnUse"><stop stop-color="#4F63DB"/><stop offset="1" stop-color="#8492E8"/></linearGradient></defs></svg>