<svg width="61" height="67" fill="none" xmlns="http://www.w3.org/2000/svg"><path d="M60.075 14.091v31.017a7.444 7.444 0 01-7.444 7.444H7.966a7.444 7.444 0 01-7.444-7.444V14.091a7.444 7.444 0 017.444-7.444h3.822a14.889 14.889 0 0013.548 8.685h4.963a14.777 14.777 0 00-2.792-8.685h7.829a14.889 14.889 0 00-5.037 11.166h4.962A14.888 14.888 0 0049.678 6.647h2.953a7.444 7.444 0 017.444 7.444z" fill="url(#paint0_linear_886_6811)"/><path d="M38.983 64.959h-17.37l2.482-12.407h12.407l2.481 12.407z" fill="#5B6EDE"/><path d="M41.465 66.2H19.133a1.24 1.24 0 110-2.482h22.332a1.24 1.24 0 110 2.482z" fill="#8898F2"/><path d="M50.15 40.704v1.923H38.574a8.275 8.275 0 10-16.55 0H10.448v-1.923a3.313 3.313 0 013.027-3.3 4.366 4.366 0 001.936-.608 4.751 4.751 0 001.923-6.13 3.287 3.287 0 011.328-4.267c3.411-1.973 4.13-2.643 5.694-2.295a3.3 3.3 0 011.998 1.352 4.752 4.752 0 007.791 0 3.276 3.276 0 014.367-.993l3.325 1.911a3.313 3.313 0 011.34 4.28 4.664 4.664 0 00.199 4.38 4.74 4.74 0 003.722 2.357 3.3 3.3 0 013.052 3.313z" fill="#B4CDE1"/><path d="M29.058 42.627V15.332a1.24 1.24 0 112.481 0v27.295a1.24 1.24 0 11-2.48 0z" fill="url(#paint1_linear_886_6811)"/><path d="M14.17 19.054H6.726a1.24 1.24 0 110-2.481h7.444a1.24 1.24 0 110 2.481zm0 4.963H6.726a1.24 1.24 0 110-2.482h7.444a1.24 1.24 0 110 2.482z" fill="#B4CDE1"/><path d="M30.299 15.332h-4.963A14.888 14.888 0 0110.448.444h4.963a14.888 14.888 0 0114.888 14.888z" fill="url(#paint2_linear_886_6811)"/><path d="M50.15 2.925a14.888 14.888 0 01-14.89 14.888H30.3a14.887 14.887 0 015.037-11.166c4.888-4.28 9.578-3.722 14.814-3.722z" fill="url(#paint3_linear_886_6811)"/><path d="M60.075 42.627v2.481a7.444 7.444 0 01-7.444 7.444H7.966a7.444 7.444 0 01-7.444-7.444v-2.481h59.553z" fill="url(#paint4_linear_886_6811)"/><path d="M31.54 48.83h-2.482a1.24 1.24 0 110-2.481h2.481a1.241 1.241 0 010 2.481z" fill="#F0F7FC"/><defs><linearGradient id="paint0_linear_886_6811" x1=".522" y1="29.6" x2="60.075" y2="29.6" gradientUnits="userSpaceOnUse"><stop stop-color="#C9DFF1"/><stop offset="1" stop-color="#F0F7FC"/></linearGradient><linearGradient id="paint1_linear_886_6811" x1="29.957" y1="-6.817" x2="29.957" y2="16.792" gradientUnits="userSpaceOnUse"><stop stop-color="#FF9B75"/><stop offset="1" stop-color="#FF3B72"/></linearGradient><linearGradient id="paint2_linear_886_6811" x1="21.429" y1="-9.546" x2="21.127" y2="15.701" gradientUnits="userSpaceOnUse"><stop stop-color="#FF9B75"/><stop offset="1" stop-color="#FF3B72"/></linearGradient><linearGradient id="paint3_linear_886_6811" x1="58.342" y1="-4.565" x2="34.461" y2="14.404" gradientUnits="userSpaceOnUse"><stop stop-color="#FF9B75"/><stop offset="1" stop-color="#FF3B72"/></linearGradient><linearGradient id="paint4_linear_886_6811" x1=".522" y1="47.59" x2="60.075" y2="47.59" gradientUnits="userSpaceOnUse"><stop stop-color="#4F63DB"/><stop offset="1" stop-color="#8492E8"/></linearGradient></defs></svg>