<svg width="61" height="66" fill="none" xmlns="http://www.w3.org/2000/svg"><path d="M60.477 13.689v31.016a7.444 7.444 0 01-7.444 7.444H8.37a7.444 7.444 0 01-7.444-7.444V13.69A7.444 7.444 0 018.37 6.245v35.979h44.664V9.967l-3.722-3.722h3.722a7.444 7.444 0 017.444 7.444z" fill="url(#paint0_linear_886_6775)"/><path d="M.925 42.224h59.552v2.481a7.444 7.444 0 01-7.444 7.444H8.37a7.444 7.444 0 01-7.444-7.444v-2.481z" fill="url(#paint1_linear_886_6775)"/><path d="M31.942 48.427h-2.481a1.24 1.24 0 110-2.481h2.481a1.24 1.24 0 110 2.481z" fill="#F0F7FC"/><path d="M39.386 64.556h-17.37l2.482-12.407h12.407l2.481 12.407z" fill="#5B6EDE"/><path d="M41.867 65.797H19.535a1.241 1.241 0 010-2.482h22.332a1.24 1.24 0 010 2.482z" fill="#8898F2"/><path d="M53.033 9.967v32.257H8.37V2.523A2.481 2.481 0 0110.851.04h32.257l9.925 9.926z" fill="url(#paint2_linear_886_6775)"/><path d="M53.034 9.967H45.59a2.481 2.481 0 01-2.482-2.482V.041l9.926 9.926z" fill="#FF9B75"/><path d="M43.108 23.614h-1.24a1.241 1.241 0 010-2.481h1.24a1.24 1.24 0 110 2.48zm-2.692-3.511a1.24 1.24 0 01-.881-2.122l.88-.868a1.24 1.24 0 011.75 1.75c-.794.806-1.092 1.24-1.75 1.24zm.881 7.903c-.62 0-.794-.285-1.762-1.24a1.246 1.246 0 111.762-1.762l.868.88a1.24 1.24 0 01-.868 2.122zM20.776 7.485h-6.203a1.24 1.24 0 010-2.481h6.203a1.24 1.24 0 110 2.481zm0 4.963h-6.203a1.24 1.24 0 010-2.481h6.203a1.24 1.24 0 010 2.48z" fill="#F0F7FC"/><path d="M32.698 15.649a6.723 6.723 0 01-5.607 3.002h-1.353v7.444h1.353a6.724 6.724 0 015.607 3.003 1.625 1.625 0 002.966-.894V16.542a1.624 1.624 0 00-2.966-.893z" fill="url(#paint3_linear_886_6775)"/><path d="M25.739 32.299c-1.104 0-1.005-.397-3.635-6.985a1.241 1.241 0 112.307-.919l2.482 6.204a1.24 1.24 0 01-1.154 1.7z" fill="#D7E9F7"/><path d="M25.738 26.095h-2.48a3.722 3.722 0 010-7.444h2.48v7.444z" fill="#D7E9F7"/><defs><linearGradient id="paint0_linear_886_6775" x1=".925" y1="29.197" x2="60.477" y2="29.197" gradientUnits="userSpaceOnUse"><stop stop-color="#C9DFF1"/><stop offset="1" stop-color="#F0F7FC"/></linearGradient><linearGradient id="paint1_linear_886_6775" x1=".925" y1="47.187" x2="60.477" y2="47.187" gradientUnits="userSpaceOnUse"><stop stop-color="#4F63DB"/><stop offset="1" stop-color="#8492E8"/></linearGradient><linearGradient id="paint2_linear_886_6775" x1="-13.438" y1="70.711" x2="42.073" y2="9.062" gradientUnits="userSpaceOnUse"><stop stop-color="#FF9B75"/><stop offset="1" stop-color="#FF3B72"/></linearGradient><linearGradient id="paint3_linear_886_6775" x1="303.648" y1="371.591" x2="383.051" y2="371.591" gradientUnits="userSpaceOnUse"><stop stop-color="#D3E6F5"/><stop offset="1" stop-color="#F0F7FC"/></linearGradient></defs></svg>