<svg width="17" height="17" fill="none" xmlns="http://www.w3.org/2000/svg"><path d="M8.5.188a8.313 8.313 0 10.001 16.626A8.313 8.313 0 008.5.187zm0 13.136a.742.742 0 110-1.484.742.742 0 010 1.484zm1.167-4.073a.896.896 0 00-.573.832v.42a.149.149 0 01-.149.15h-.89a.149.149 0 01-.149-.15v-.398a2.08 2.08 0 011.336-1.964c.631-.242 1.04-.771 1.04-1.348 0-.818-.8-1.484-1.782-1.484s-1.781.666-1.781 1.484v.141a.149.149 0 01-.149.148h-.89a.149.149 0 01-.149-.148v-.141c0-.73.32-1.41.898-1.917A3.128 3.128 0 018.5 4.121c.78 0 1.514.27 2.07.755.58.507.899 1.188.899 1.917 0 1.072-.707 2.037-1.802 2.458z" fill="#3D3A71"/></svg>