<svg width="30" height="29" fill="none" xmlns="http://www.w3.org/2000/svg"><g clip-path="url(#clip0_886_7479)"><path fill-rule="evenodd" clip-rule="evenodd" d="M.91 14.581c0 7.202 5.23 13.19 12.07 14.404V18.524H9.359V14.5h3.62v-3.219c0-3.621 2.334-5.632 5.634-5.632 1.046 0 2.173.16 3.218.321v3.702h-1.85c-1.77 0-2.173.885-2.173 2.012v2.817h3.863l-.643 4.023h-3.22v10.461c6.84-1.214 12.071-7.201 12.071-14.404 0-8.01-6.518-14.565-14.485-14.565S.91 6.57.91 14.58z" fill="#3D3A71"/></g><defs><clipPath id="clip0_886_7479"><path fill="#fff" transform="translate(.91 .016)" d="M0 0h28.97v28.97H0z"/></clipPath></defs></svg>