<svg width="1157" height="669" fill="none" xmlns="http://www.w3.org/2000/svg"><path d="M228.326 416.575c18.139 13.016 39.982 22.976 45.555 24.342 9.114 2.319 54.04-12.063 54.04-12.063l2.787 6.166s-44.117 22.976-61.124 24.647c-22.112 2.194-47.173-10.534-47.173-10.534l5.915-32.558z" fill="#FF9B75"/><path fill-rule="evenodd" clip-rule="evenodd" d="M336.537 421.249l-8.616 7.605 1.978 6.13s13.267.126 15.461-2.768c2.023-2.67-.696-8.828-3.205-10.854 1.517-2.516 2.227-4.593 1.443-5.344-1.069-1.023-5.694 3.767-7.061 5.231z" fill="#FA9D76"/><path d="M390.717 664.863c-6.868-.216-10.679 1.186-12.836-1.546a8.395 8.395 0 01-1.079-6.652l13.052-3.469s22.903.251 26.75.916c3.452.612 1.547 11.614-25.887 10.751z" fill="url(#paint0_linear_886_6340)"/><path d="M386.114 650.948c2.661 1.906 5.286 2.607 5.502 3.47.97 4.207-11.488 7.191-14.814 2.247l-1.133-3.254 10.445-2.463z" fill="#fff"/><path d="M390.303 635.47c-8.071 5.213-34.157 5.069-38.274 3.595-2.373-.863-2.642-5.663-2.588-7.856a5.395 5.395 0 011.797-4.243s6.868-.377 9.151-.179c3.505.305 25.42 1.797 29.645 2.984 3.326.935 1.474 4.926.269 5.699z" fill="url(#paint1_linear_886_6340)"/><path d="M358.789 625.402a35.937 35.937 0 004.746 2.283c4.153 2.122-13.07 5.825-13.429 2.607a46.707 46.707 0 010-6.544l8.683 1.654z" fill="#fff"/><path d="M344.533 491.488c30.31 12.818 14.382 117.069 15.766 133.033 0 0-8.701 4.854-11.973.827l-14.958-99.649-70.939 40.27-36.458-28.423s103.137-52.584 118.562-46.058z" fill="#FF3B72"/><path d="M246.304 518.49s55.73 7.82 75.505 29.106c8.18 8.827 60.8 86.849 65.043 101.159 1.582 5.25-10.787 7.874-13.897 3.29-6.22-8.989-63.622-85.285-70.723-85.016-46.167 1.798-67.38-3.074-78.616-10.984-12.584-8.899-14.49-12.404-14.49-12.404l29.807-22.005 7.371-3.146z" fill="url(#paint2_linear_886_6340)"/><path d="M193.683 407.047c21.807-.773 34.643 9.528 34.643 9.528a37.364 37.364 0 017.532 18.284c1.636 11.613-11.955 7.047-11.955 7.047l-30.22-34.859z" fill="#FF3B72"/><path d="M137.917 461.411c-3.883-15.388 3.2-21.573 5.052-23.371 23.011-22.076 41.923-35.955 61.285-30.364 20.566 6.005 38.31 61.627 74.859 77.538 36.548 15.91-26.715 62.921-54.544 63.28-44.387.468-77.951-52.62-86.652-87.083z" fill="#fff"/><path d="M155.355 426.211c-4.153 5.07 8.45 10.23 17.978 7.281 9.528-2.948 13.195-10.049 11.218-13.195a12.586 12.586 0 00-10.337-6.005c-5.52-.521-18.859 11.919-18.859 11.919z" fill="#FF3B72"/><path d="M175.813 378.697c14.688 20.728 8.414 30.705 3.596 33.798-3.092 1.941-1.798 4.116-.324 5.393a4.33 4.33 0 011.007 5.069c-1.186 2.338-4.135 5.106-11.38 6.311-7.802 1.294-12.926-3.218-10.247-5.394.989-.773 2.193-4.746 1.672-7.586-.521-2.841-20.656-28.351-9.492-35.002 11.164-6.652 25.168-2.589 25.168-2.589z" fill="url(#paint3_linear_886_6340)"/><path d="M173.081 372.566a6.21 6.21 0 00-3.128 1.636 6.366 6.366 0 00-10.283.971 6.383 6.383 0 00-9.96 3.452 6.25 6.25 0 00-2.157 0 6.381 6.381 0 00-4.998 7.514v.162a6.364 6.364 0 001.187 11.991 6.188 6.188 0 00-.558 4.117 6.366 6.366 0 007.659 5.052 6.46 6.46 0 00.108 1.798 6.38 6.38 0 0012.218 1.026 6.381 6.381 0 00-2.115-7.373 6.383 6.383 0 00-2.553-8.827 5.748 5.748 0 00-.126-1.24 6.38 6.38 0 004.225-3.02 6.365 6.365 0 0010.157-4.782 6.23 6.23 0 002.823 0 6.38 6.38 0 003.75-10.612 6.384 6.384 0 00-6.285-1.883l.036.018z" fill="url(#paint4_linear_886_6340)"/><path d="M168.281 468.908c-4.387 21.879-4.459 45.897-3.416 51.524 1.708 9.24 33.241 44.278 33.241 44.278l-4.495 5.07s-39.173-30.706-47.64-45.465c-11.11-19.218-9.852-47.299-9.852-47.299l32.162-8.108z" fill="#FF9B75"/><path d="M192.766 562.265a.971.971 0 011.258.575.968.968 0 01-.521 1.277 1.008 1.008 0 01-.737-1.798v-.054z" fill="#6E5851"/><path d="M136.964 449.78a174.996 174.996 0 00-.881 34.625s8.45 9.923 32.575 2.534c0 0 5.16-5.519 1.672-20.045-3.487-14.525-32.072-27.775-33.366-17.114z" fill="#FF3B72"/><path d="M198.105 564.71c11.29.324 18.553 3.686 12.98 3.47-5.573-.216 5.501 2.139 5.393 6.975-.107 4.836-8.467 6.202-15.029 1.708-6.562-4.494-7.91-7.191-7.91-7.191l4.566-4.962z" fill="#FA9D76"/><path d="M512.766 74.948l-1.006-.988-.36-.306a1.96 1.96 0 00-2.103 0l-84.657 48.827a4.586 4.586 0 00-2.283 3.919v65.906a1.8 1.8 0 00.648 1.42l1.186 1.151-.198-.702a1.98 1.98 0 001.295-.251l84.656-48.827a4.55 4.55 0 002.301-3.919V75.236l.521-.288z" fill="#fff"/><path d="M426.384 194.948l84.657-48.827a4.566 4.566 0 002.283-3.919V76.314a1.906 1.906 0 00-2.931-1.617l-84.656 48.827a4.584 4.584 0 00-2.283 3.919v65.905a1.904 1.904 0 002.93 1.6z" fill="#3D3A71"/><path d="M573.602 185.834v-5.394l-4.584 1.493-53.429-30.868a4.567 4.567 0 00-4.549 0l-82.696 47.695-2.967-2.266v5.16c.031.654.389 1.249.953 1.582l57.097 33.043a4.57 4.57 0 004.548 0l84.656-48.827c.558-.316.922-.889.971-1.528v-.09z" fill="#9492B1"/><path d="M426.384 194.948l84.656-48.827a4.571 4.571 0 014.549 0l57.06 32.971a1.905 1.905 0 010 3.344l-84.656 48.827a4.604 4.604 0 01-4.548 0l-57.079-32.971a1.904 1.904 0 01.018-3.344z" fill="#fff"/><path d="M428.649 189.501l79.497-45.861V80.126l-79.497 45.861v63.514z" fill="#71AAFF"/><path d="M436.344 178.912l64.108-36.979v-51.2l-64.108 36.961v51.218z" fill="#fff"/><path d="M436.344 131.02l64.108-36.98v-3.307l-64.108 36.961v3.326zm-7.695 62.616v-2.535l79.497-45.878v2.57l-79.497 45.843z" fill="#3D3A71"/><path d="M490.169 199.407l13.968 8.072a2.192 2.192 0 002.247 0l24.845-14.382a.61.61 0 000-1.043l-13.986-8.072a2.251 2.251 0 00-2.23 0l-24.844 14.382a.576.576 0 000 1.043z" fill="#B1B0C6"/><path d="M499.265 93.933c.422-.345.508-.955.198-1.403a1.17 1.17 0 00-1.6 1.6c.447.31 1.058.225 1.402-.197zm-2.678 1.6c.439-.335.527-.96.197-1.403a1.168 1.168 0 00-1.6 1.6c.443.33 1.068.242 1.403-.197zm-2.661 1.617a.88.88 0 10-1.205-1.204.882.882 0 00.29 1.629.88.88 0 00.915-.424z" fill="#FF3D2B"/><path d="M707.373 93.825c-2.912-3.704-29.375-5.394-33.474-12.98l-17.654-26.786s6.22 8.27 11.56 9.69c7.64 2.03 18.319.772 22.328 4.602l17.24 25.474z" fill="#fff"/><path d="M673.989 80.845L656.335 54.06s-1.906-3.884-.773-6.58l17.977 27.667a7.91 7.91 0 00.45 5.7z" fill="#CCD0D6"/><path d="M674.366 76.656l53.357-4.135-19.442-30.218-53.225 4.51 19.31 29.843z" fill="url(#paint5_linear_886_6340)"/><path d="M1103.51 18.175l5.95-4.908a26.93 26.93 0 004.13-4.961 3.343 3.343 0 011.94-1.96l13.96 4.17-2.65 5.124s-5.8-.323-7.19.702a51.616 51.616 0 00-4.01 4.045l-6.29 6.777-5.84-8.989z" fill="#93C4FF"/><path d="M1133.19 4.764c-5.93-4.297-13.95-6.921-16.68-1.798-.99 1.798-3.06 5.825-3.06 5.825 5.64-1.204 13.59 5.879 13.39 6.94 0 0 26.02 13.59 28.55 11.451.33-.379.6-.795.83-1.24 1.26-3.218-17.69-17.295-23.03-21.178z" fill="url(#paint6_linear_886_6340)"/><path d="M1109.57 67.83s10.39-.504 11.95-1.349a4.885 4.885 0 013.02-.521l10.03 10.283s-8.52.377-18.26.989c-2.25.143-8.99 1.384-8.99 1.384l2.25-10.787z" fill="#93C4FF"/><path d="M1141.93 71.928c-3.15-5.968-9.62-10.337-14.55-8.108-1.47.648-5.86 2.661-5.86 2.661 7.07.198 8.33 8.989 6.56 10.067 0 0 18.11 24.594 21.36 24.504.48-.093.94-.243 1.38-.45 2.85-1.69-5.82-22.76-8.89-28.674z" fill="url(#paint7_linear_886_6340)"/><path d="M922.726 29.95c13.141.774 85.174 36.783 96.104 37.106 17.82.522 90.74.773 90.74.773a6.35 6.35 0 013.78 4.356c.5 1.975.01 4.066-1.3 5.622 0 0-94.92 19.002-102.69 17.977-13.178-1.654-86.293-22.76-86.293-22.76L904.55 59.453l18.176-29.501z" fill="url(#paint8_linear_886_6340)"/><path d="M757.818 48.81c-15.839 2.264-31.713 5.069-31.713 5.069l-55.73-1.06s-11.739-.936-12.315 7.046c-.575 7.982 10.158 12.764 11.47 7.73 1.654-6.346 6.148-6.166 6.148-6.166s38.4 2.14 50.337 3.02c11.938.881 34.158 1.583 34.158 1.583l16.773-10.787-19.128-6.436z" fill="url(#paint9_linear_886_6340)"/><path d="M819.804 86.796c-29.069-22.814-59.631-20.764-59.631-20.764 4.081-11.074-2.355-17.223-2.355-17.223l77.483-8.701-15.497 46.688z" fill="#fff"/><path d="M911.939 98.337c38.616 11.919 116.851 13.501 126.561 9.672 9.71-3.829 76.8-85.447 76.8-85.447s.15-13.447-8.07-8.737c-7.19 4.08-66.84 73.258-80.9 70.112-36.134-7.64-100.656-38.22-100.656-38.22l-13.735 52.62z" fill="url(#paint10_linear_886_6340)"/><path d="M821.405 105.708c-16.756 25.384-29.016 42.858-34.805 45.771-5.789 2.912-69.663 17.977-80.899 17.977-11.236 0-8.629 2.14-7.443 2.481 1.187.342 7.677 0 8.612.989.935.989.413 8.09 4.278 8.431 8.845.737 9.259-4.638 10.535-5.393 1.277-.755 50.247-6.67 67.344-9.816 17.097-3.146 48.809-49.402 48.809-49.402l-6.148-15.281-10.283 4.243z" fill="url(#paint11_linear_886_6340)"/><path d="M943.22 78.292c15.928-18.553 3.236-48.144-22.957-53.231-28.009-5.394-36.657 10.786-77.034 14.256-48.36 4.117-36.782 7.838-40.719 15.694-4.225 8.378 6.238 21.843 6.238 21.843 4.926 5.735 2.337-1.294 11.056 9.87 4.692 11.415 4.297 12.89 1.51 18.912 0 0 14.185 4.71 16.414 10.966 0 0 16.521-22.957 81.42-16.287 13.07 1.33 17.438-8.072 17.438-8.072l-21.177-7.191s26.067-4.639 27.811-6.76z" fill="#fff"/><path d="M780.991 68.027c8.989 22.022 12.584 22.472 17.367 21.77 4.782-.7 4.979-3.775 10.247-5.392 5.267-1.618 8.449.107 13.681 2.157 3.595 1.402 3.218-6.634-.144-11.686-3.362-5.051-3.919-6.831-12.279-4.818-8.359 2.014-9.834-6.687-19.883-7.658-10.049-.97-8.989 5.627-8.989 5.627z" fill="url(#paint12_linear_886_6340)"/><path d="M776.748 63.191c.863 13.95 17.978 4.8 22.4 6.076 5.178 1.51 7.623 1.367 10.517 4.423 2.894 3.056 8.989.845 12.44-2.391 3.452-3.236 6.095-5.681 18.338-.324 12.242 5.358 8.988 2.697 19.685 4.369 10.697 1.672 17.15-11.38 27.991-14.706 10.84-3.326 14.382 10.265 26.013 11.668 19.164 2.3 32.558-16.54 21.106-33.78-4.422-6.652 6.023-6.149 1.079-16.072-7.677-15.335-31.785-20.71-46.904-10.193-12.854 8.989-19.056 13.321-37.105 7.01-18.05-6.31-31.677 15.857-43.146 15.354-11.47-.504-33.582 9.51-32.414 28.566z" fill="url(#paint13_linear_886_6340)"/><path d="M964.056 251.056l-3.596 11.362s22.85 6.885 23.371 6.292c.522-.593 6.238-12.261 6.238-12.261l-5.878-11.955-20.135 6.562z" fill="#C2DDE1"/><path fill-rule="evenodd" clip-rule="evenodd" d="M838.346 275.732l10.457 6.821-.863 7.317s-14.023 2.624-16.935-.216c-2.684-2.618-1.062-10.092 1.207-12.865-2.148-2.59-3.306-4.843-2.628-5.85.97-1.438 7.458 3.732 8.762 4.793z" fill="url(#paint14_linear_886_6340)"/><path d="M958.033 242.085l2.284-2.696c.45 1.31.585 2.708.395 4.081 0 0-2.751 3.919-2.804 3.775-.054-.144.125-5.16.125-5.16z" fill="#D5D8DE"/><path d="M1020.56 569.564c4.85-6.202 8.84-8.521 8.04-12.44a9.613 9.613 0 00-5-5.861l-12.59 8.989s-16.518 20.332-18.729 24.197c-1.888 3.416 9.009 9.798 28.279-14.885z" fill="#08217E"/><path d="M951.777 249.834c-16.575 18.139-37.752 33.51-43.307 36.117-9.205 4.26-59.668-3.398-59.668-3.398l-1.798 7.514s51.38 17.654 69.699 16.36c23.838-1.69 47.803-20.8 47.803-20.8l-12.729-35.793z" fill="url(#paint15_linear_886_6340)"/><path d="M1011.82 555.236c-.29 3.739-1.6 6.562-1 7.389 2.96 3.991 14.7-4.746 12.78-11.362l-2-3.398-9.78 7.371z" fill="#fff"/><path d="M1073.29 513.654c7.48-8.036 12.58-37.573 11.86-42.481-.46-2.858-5.79-4.171-8.25-4.548a5.988 5.988 0 00-5.1 1.222s-1.8 7.677-2.09 10.301c-.38 4.009-3.25 29.07-2.75 34.158.38 3.811 5.21 2.535 6.33 1.348z" fill="#08217E"/><path d="M1068.51 475.955a47.138 47.138 0 011.58 5.843c1.51 5.123 9.18-13.555 5.66-14.634a53.375 53.375 0 00-7.3-1.438l.06 10.229z" fill="#fff"/><path d="M957.512 233.492s3.2 3.056 1.924 11.218c-.917 5.861 15.964 11.362 15.964 11.362 7.658-10.787 3.47-25.762 3.47-25.762s-1.565 1.007-6.472-5.483c-2.463-3.272-14.886 8.665-14.886 8.665z" fill="url(#paint16_linear_886_6340)"/><path d="M921.737 432.09c8.126 36.89 127.933 40.467 145.403 45.393 0 0 7.19-8.845 3.38-13.357l-108.298-37.573 59.538-71.766-24.176-47.084s-79.982 105.6-75.847 124.387z" fill="#3D3A71"/><path d="M998.699 334.418s-33.924 54.885-29.789 87.838c1.798 13.735 31.16 117.645 40.49 131.955 3.45 5.268 14.7-3.595 13.03-9.797-3.27-12.099-27.74-118.958-22.31-125.016 35.25-39.299 46.56-61.519 47.87-77.304 1.48-17.654-.19-21.914-.19-21.914l-40.99 10.031-8.111 4.207z" fill="#3D3A71"/><path d="M854.267 286.076a1.095 1.095 0 00-1.87-.662 1.098 1.098 0 001.024 1.841c.539-.123.902-.628.846-1.179z" fill="#08217E"/><path d="M956.919 244.746s9.492 16.288 20.387 11.973c10.894-4.314 6.705-27.236 6.705-27.236s16.699-.989 23.249-.287l19.09 23.874s30.76 56.809 24.56 89.672c-3.6 18.517-6.04 7.191-22.82-.845-19.34-9.241-42.227-.917-47.8 1.204a72.143 72.143 0 00-13.268 6.652c-1.797-20.8 1.187-44.818-8.629-66.373-14.166-31.065-6.867-34.301-6.867-34.301l5.393-4.333z" fill="url(#paint17_linear_886_6340)"/><path d="M975.4 256.072l-6.148-4.261-2.661 8.378c-.072-.18 5.303-2.445 8.809-4.117z" fill="#8BA2AA"/><path d="M969.252 251.811l6.148 4.261-10.337-2.697 4.189-1.564z" fill="#D5D8DE"/><path d="M975.939 247.551l-.539 8.521 10.409-5.213-9.87-3.308z" fill="#B8BBC1"/><path d="M976.011 247.551l9.852 3.307c.077-3.122.384-6.234.917-9.312 1.276-8.989-2.895-12.692-2.895-12.692l-5.788.378s1.797 2.624.809 8.629c-1.69 9.078-2.895 9.69-2.895 9.69zm-6.759 4.26l-2.661 8.378s-11.434-8.773-11.991-14.292l3.416-3.812a18.93 18.93 0 0011.236 9.726z" fill="#fff"/><path d="M975.939 247.551l-.539 8.521 6.526-6.508-5.987-2.013z" fill="#D5D8DE"/><path d="M939.229 220.512c4.387 8.845 8.989 12.225 14.149 16.702 7.011 6.058 16.323-1.421 17.977-8.378.971-4.261 3.236-12.872-6.777-17.744-10.014-4.872-26.661 3.29-26.661 3.29l1.312 6.13z" fill="url(#paint18_linear_886_6340)"/><path d="M934.663 211.146c-.431 3.182.755 10.211 3.308 11.002 1.798.576 6.364-3.595 9.546-4.944 8.342-3.595 7.892 2.23 13.447-1.33 4.369-2.804 7.784 1.798 6.436 6.436-.323 1.097 5.393 2.715 5.897.899.503-1.816 1.798-5.483-.647-13.537-1.295-4.261-6.311-10.625-12.189-11.128-3.901-.342-4.746 3.038-11.883 4.26-3.704.612-4.513-.107-7.191.989-.881.342-6.041 2.589-6.724 7.353z" fill="url(#paint19_linear_886_6340)"/><path d="M1110.27 282.535s11-1.798 14.06-1.151c3.05.648 10.4 9.618 9.33 14.059-1.08 4.44-10.25-2.751-12.73-3.973-2.48-1.223 3 2.696 3.31 4.027.3 1.33-.96 1.797-3.6.09a59.863 59.863 0 00-11.27-4.8l.9-8.252z" fill="url(#paint20_linear_886_6340)"/><path d="M1007.26 229.196c18.21 6.795 42.12 30.471 48.73 32.269 6.62 1.798 57.53 19.686 57.53 19.686l-1.01 12.584s-47.92-6.238-65.63-8.989c-3.45-.521-23.25 0-37.14-42.139l-2.48-13.411z" fill="url(#paint21_linear_886_6340)"/><path d="M1110.45 290.265a1.087 1.087 0 00-.73-.841 1.077 1.077 0 00-1.38 1.309c.06.281.23.527.47.683.24.156.53.207.81.144.28-.06.53-.231.68-.475.16-.243.21-.538.15-.82z" fill="#08217E"/><g opacity=".8"><path d="M508.146 80.09v63.515s37.663 38.633 151.191 38.274c90.535-.27 142.634 71.91 142.346 133.753l.971-108.243c0-24.522-34.157-62.095-91.272-57.438-52.423 4.188-95.281 9.006-203.236-69.861z" fill="url(#paint22_linear_886_6340)"/><path d="M749.998 265.259v123.182c7.892 54.795 340.922 183.712 340.922 183.712V356.189s-340.922-47.784-340.922-90.93z" fill="url(#paint23_linear_886_6340)"/><path d="M749.998 388.512c0-47.712 50.085-34.678 51.685-72.952l.971-108.692c0 54.148-52.656 28.53-52.656 58.013v123.631z" fill="url(#paint24_linear_886_6340)"/><path opacity=".5" d="M756.56 269.555c1.384-10.175 22.292-10.355 32.629-17.654v26.805a35.593 35.593 0 01-12.351 6.094c-8.989 2.409-18.858 6.957-20.278 11.632v-26.877zm0 36.836c2.031-12.962 25.168-11.829 32.629-20.8v23.371s-2.265 5.986-12.351 10.786c-8.647 4.045-18.858 10.284-20.278 14.958v-28.315z" fill="#fff"/></g><path d="M832.622 556.548l-43.218-61.519L833.018 544l9.15 4.908 4.459 3.254-5.214 10.822-8.791-6.436z" fill="url(#paint25_linear_886_6340)"/><path d="M724.829 369.888c10.103 11.415 36.315 93.645 44.944 102.885 14.13 15.065 72.377 76.135 72.377 76.135-4.961-1.798-8.809 5.717-6.022 10.211 0 0-94.903-60.117-100.458-67.29-9.421-12.153-45.412-86.292-45.412-86.292l-4.153-26.319 38.724-9.33z" fill="url(#paint26_linear_886_6340)"/><path d="M787.247 513.564l7.838.414a26.836 26.836 0 006.436-.881 3.34 3.34 0 012.805-.126l2.696 14.759s-4.26-4.242-5.95-4.368a51.174 51.174 0 00-5.753.27l-9.33.773 1.258-10.841z" fill="url(#paint27_linear_886_6340)"/><path d="M644.541 396.998c-4.26 54.202 21.573 128.287 39.065 135.191 17.493 6.903 104.953-7.964 104.953-7.964-2.571-4.027-1.528-9.51.845-10.661 0 0-68.009-3.038-80.683-5.735 0 0-9.492-67.793-5.231-82.696 0 0 8.323-33.241-2.859-52.495-11.182-19.254-56.09 24.36-56.09 24.36z" fill="url(#paint28_linear_886_6340)"/><path d="M463.166 224.575c5.393 3.128 13.897 2.391 14.886.971.988-1.42-.863-7.802.143-8.072 2.445-.629 2.086 6.706 4.279 9.456a47.21 47.21 0 014.62 7.066s-4.584 4.836-6.094 3.775c-5.088-3.596-14.041-2.157-20.513-9.564-3.182-3.596 0-5.178 0-5.178l2.679 1.546z" fill="url(#paint29_linear_886_6340)"/><path d="M567.31 186.661c-4.297-7.785-12.584-11.56-11.254-13.124.881-1.115 1.798 1.079 5.106 3.308 3.307 2.229 1.887-2.733 1.887-2.733l-6.076-3.505s1.132-1.69 5.303-.593c3.11.808 6.077 1.222 8.126 3.811 3.092 3.937 2.607 6.526 3.416 9.114.809 2.589-6.508 3.722-6.508 3.722z" fill="url(#paint30_linear_886_6340)"/><path d="M481.629 240.09l-2.391-2.391s-1.69-1.528.701-4.512c2.391-2.985 6.616-.558 6.616-.558l2.265 2.355-7.191 5.106zm89.528-48.378a19.338 19.338 0 01-4.602-5.393c-1.492-2.894.989-7.191 5.843-5.483a10.252 10.252 0 014.638 4.818l-5.879 6.058z" fill="#fff"/><path d="M696.658 322.894c-21.914-23.047-38.669-28.386-49.456-46.436-10.786-18.049-22.687-39.55-28.332-47.137-6.94-9.384-26.23-28.099-41.996-44.943-3.595-3.92-13.537-1.061-6.22 11.433 7.317 12.495 34.463 51.47 37.914 58.661 3.452 7.191 4.189 40.971 4.189 40.971l-10.786 8.809-66.409-28.692s-34.895-32.36-46.041-40.432c-6.831-4.998-12.063 1.582-7.928 6.886 2.751 3.595 39.191 57.761 46.13 63.083 6.94 5.321 64.54 35.469 64.54 35.469 18.211 14.292 41.762 71.497 43.631 89.439 0 0 13.358-18.194 29.573-28.765a224.482 224.482 0 0131.335-16.521l-4.836-12.063 9.978 9.708s25.51-10.553 30.903-6.975c.036 0-14.508-29.681-36.189-52.495z" fill="url(#paint31_linear_886_6340)"/><path d="M594.294 266.301c-2.661 10.193-3.847 25.708 4.638 29.825 6.436 3.128 6.904 4.98 6.904 4.98s10.535 0 16.503-4.71c5.393-4.243.126-8.45.414-12.585.701-10.175 2.013-18.247-4.8-21.86-9.636-5.178-21.951-2.266-23.659 4.35z" fill="url(#paint32_linear_886_6340)"/><path d="M604.541 299.56l-.791 3.254s12.729 0 17.978-5.25c2.966-3.02 3.739-4.692 3.596-6.022 0 0-6.544 4.907-10.23 5.896-4.854 1.277-10.553 2.122-10.553 2.122z" fill="#fff"/><path d="M594.744 259.254c-5.142 4.746-2.085 15.928 9.097 24.449 11.182 8.522 8.215 14.526 11.182 14.544 4.242 0 11.326-5.393 12.584-8.539 1.258-3.146-1.258-7.191 0-14.112 1.258-6.922.701-15.515-5.879-18.859-6.579-3.344-21.447-2.661-26.984 2.517z" fill="url(#paint33_linear_886_6340)"/><path d="M846.573 551.101c-3.595-1.132-7.029 5.483-7.191 16.809-.162 11.326-9.816 34.589 0 35.722 3.308.377 17.654-44.549 14.634-47.407l-.486-.432a21.02 21.02 0 00-6.957-4.692z" fill="#3D3A71"/><path d="M839.382 603.56c3.739 1.636 16.18-38.904 16.305-41.564.126-2.661.108-4.8-1.672-5.843-1.779-1.043-5.896 1.51-7.424 6.831-.665 2.499-14.652 37.304-7.209 40.576z" fill="url(#paint34_linear_886_6340)"/><path d="M801.198 513.348c-1.978 1.798 2.427 11.56 5.986 16.18 3.56 4.62 10.895 26.463 14.256 26.589.505-.06.999-.181 1.475-.36 2.157-2.157-.108-20.242-3.955-29.609-4.063-9.887-9.241-14.615-11.003-15.101-1.761-.485-6.759 2.301-6.759 2.301z" fill="#3D3A71"/><path d="M807.22 511.137c-2.733 2.337 12.063 45.214 15.479 44.71 3.415-.503-.702-25.618-3.596-31.892-2.894-6.274-7.263-16.755-11.883-12.818z" fill="url(#paint35_linear_886_6340)"/><g opacity=".8"><path d="M.497 472.845V668.8s496.449-28.764 499.937-214.382V297.349C497.809 389.699 226.222 454.616.497 472.845z" fill="url(#paint36_linear_886_6340)"/><path d="M427.085 247.623v63.514c0 55.461 73.331 76.369 73.331 143.299V297.349c-1.564-35.021-73.331-6.347-73.331-49.726z" fill="url(#paint37_linear_886_6340)"/><path d="M447.202 221.645v-55.119a151.285 151.285 0 01-5.519 31.964c-1.115 4.189-2.355 8.396-3.596 12.584-3.002 9.672-6.364 19.326-9.474 28.764a28.665 28.665 0 00-1.474 7.803v63.514a28.792 28.792 0 011.474-7.82c3.344-10.103 6.994-20.53 10.176-30.957 1.797-6.131 3.595-12.279 4.961-18.355a119.567 119.567 0 003.452-32.378z" fill="url(#paint38_linear_886_6340)"/><path d="M447.292 166.382c-.755-15.281-5.932-29.195-18.643-40.395v63.514a58.756 58.756 0 014.746 4.71 52.47 52.47 0 018.396 12.585 60.532 60.532 0 015.519 23.155v-63.569h-.018z" fill="url(#paint39_linear_886_6340)"/></g><path d="M1151.94 198.202l-51.56 23.964-12.05-59.272 45.96-25.384 17.65 60.692z" fill="url(#paint40_linear_886_6340)"/><path d="M1096.28 218.301l4.1 3.865-1.44-7.065-2.66 3.2z" fill="url(#paint41_linear_886_6340)"/><path d="M1099.43 163.344l-1.8 60.171s13.41-.288 15.98-1.457c2.57-1.168 18.64-18.966 27.29-32.934.83-1.331-.12-26.967-.12-26.967l-41.35 1.187z" fill="#fff"/><path d="M1140.88 189.124s-8.66 14.615-20.89 14.867c0 0 .51 7.191-6.4 18.067 2.65-1.186 21.36-16.97 27.29-32.934z" fill="#CCD0D6"/><path d="M1109.31 113.384l-25.97 42.212 12.94 62.705 28.67-34.445-15.64-70.472z" fill="url(#paint42_linear_886_6340)"/><path d="M1120.68 183.551a.326.326 0 01-.18.108.393.393 0 01-.47-.306l-13.12-59.811a.36.36 0 01.05-.302.359.359 0 01.25-.166.42.42 0 01.49.306l13.1 59.793c.04.14-.01.286-.12.378zm16.45-29.609a.416.416 0 01-.45 0l-14.39-7.497a.403.403 0 01-.16-.539.406.406 0 01.24-.194c.1-.03.21-.019.3.032l14.38 7.479c.1.049.17.134.2.235.03.102.02.211-.03.304a.186.186 0 01-.09.18zM609.27 556.656a6.03 6.03 0 01-3.398-.575.792.792 0 01-.198-.755 308.418 308.418 0 003.308-37.915.391.391 0 01.126-.305.43.43 0 01.323 0l45.573 7.191a.41.41 0 01.27.179.45.45 0 010 .342c-4.998 16.593.791 24.09.845 24.162a.36.36 0 010 .377.323.323 0 01-.288.252c-4.117.701-35.883 7.047-46.561 7.047z" fill="#fff"/><path d="M649.845 529.258l-36.566-5.285a.4.4 0 11.125-.791l36.567 5.285a.396.396 0 010 .791h-.126zm0 4.495l-37.178-4.495a.392.392 0 01-.359-.431.432.432 0 01.449-.36l37.178 4.495a.43.43 0 01.359.449.39.39 0 01-.153.265.393.393 0 01-.296.077zm0 4.081l-37.178-3.47a.393.393 0 01-.359-.431.413.413 0 01.449-.36l37.178 3.47a.397.397 0 11-.09.791z" fill="#CCD0D6"/><path d="M593.449 561.312l6.292 4.027 56.036-16.179s-1.042 1.905-12.314-22.095l-50.014 34.247z" fill="#CCD0D6"/><path opacity=".5" fill-rule="evenodd" clip-rule="evenodd" d="M403.211 420.261c2.895-9.51 11.218-14.958 18.589-12.189 7.389 2.805 11.038 12.692 8.144 22.202-2.895 9.51-11.2 14.958-18.589 12.189-7.389-2.768-11.038-12.692-8.144-22.202zm10.787 13.501c3.649 1.366 7.766-1.33 9.186-6.023 1.42-4.692-.377-9.6-4.027-10.966-3.649-1.366-7.82 1.33-9.186 6.023-1.367 4.692.377 9.6 4.027 10.966zm-10.787 35.685c2.895-9.492 11.218-14.957 18.589-12.188 7.389 2.768 11.038 12.728 8.144 22.22-2.895 9.492-11.2 14.957-18.589 12.189-7.389-2.769-11.038-12.729-8.144-22.221zm10.787 13.519c3.649 1.367 7.766-1.33 9.186-6.022 1.42-4.71-.377-9.618-4.027-10.984-3.649-1.367-7.82 1.33-9.186 6.022-1.367 4.692.377 9.618 4.027 10.984z" fill="#fff"/><path d="M409.557 474.086c.069-.714.207-1.418.414-2.104v-.144l-6.706-2.678-.108.287a22.419 22.419 0 00-.845 4.261l7.245.378z" fill="#fff"/><path opacity=".5" d="M408.479 411.434l4.098 6.993a6.65 6.65 0 015.394-1.977l1.348-8.989a13.263 13.263 0 00-10.84 3.973zm14.598 46.4l-3.29 8.413a7.912 7.912 0 013.847 6.616l7.191-1.618c-.414-5.915-3.254-11.074-7.748-13.411z" fill="#08217E"/><path opacity=".5" fill-rule="evenodd" clip-rule="evenodd" d="M430.088 531.883c-2.931 9.6-11.326 15.119-18.787 12.315-7.461-2.787-11.128-12.836-8.216-22.436 2.913-9.6 11.308-15.101 18.769-12.315 7.461 2.787 11.164 12.836 8.234 22.436zm-10.895-13.645c-3.685-1.384-7.838 1.349-9.276 6.077-1.456 4.746.359 9.708 4.045 11.092 3.685 1.384 7.856-1.331 9.294-6.077 1.438-4.746-.377-9.707-4.063-11.092z" fill="#fff"/><path d="M423.669 527.209c-.07.719-.208 1.429-.413 2.121v.144l6.777 2.715.108-.306c.421-1.401.704-2.84.845-4.296l-7.317-.378z" fill="#fff"/><path opacity=".5" d="M410.007 543.623l3.325-8.504a7.98 7.98 0 01-3.883-6.687l-7.299 1.635c.378 5.987 3.326 11.2 7.857 13.556zm9.222-136.18l-1.348 8.989a6.069 6.069 0 012.193.755l3.596-8.234a10.78 10.78 0 00-1.798-.899 10.95 10.95 0 00-2.643-.611z" fill="#08217E"/><path d="M55.328 632.521a15.672 15.672 0 01-3.973-.521c-4.692-1.204-11.811-2.75-11.883-2.768a.38.38 0 01-.252-.18.45.45 0 010-.306l12.746-45.393a.363.363 0 01.503-.234c.162 0 16.414 4.89 21.897 6.041a16.31 16.31 0 008.989-1.061.394.394 0 01.45.09c.125.108.27 7.676 1.563 15.712l-19.56 23.047a12.833 12.833 0 01-10.48 5.573z" fill="#fff"/><path d="M60.631 599.047l49.295-24.467-44.153 52.44s10.247-14.579-5.142-27.973z" fill="#CCD0D6"/><g opacity=".5"><path d="M764.775 376.899l-5.519-6.023v-35.397l5.519 3.721v37.699zm13.609-21.897l-5.501-5.501v-35.398l5.501 3.182v37.717zm13.627 18.895l-5.519-.324v-48.485l5.519 2.301v46.508zm13.627-27.326l-5.519-.575v-21.807l5.519 2.103v20.279zm13.609 53.105l-5.519-.898v-71.389l5.519 1.798v70.489z" fill="#fff"/><path d="M764.775 387.182v-23.533l-5.519-3.865v20.531a17.873 17.873 0 005.519 6.867zm13.609-45.789l-5.519-2.984v55.587c1.797 1.402 3.595 2.84 5.501 4.332l.018-56.935zm13.627 24.396l-5.519-3.308v41.906c1.797 1.294 3.595 2.606 5.519 3.955v-42.553zm13.627-29.034l-5.519-1.798v79.101c1.798 1.205 3.596 2.427 5.519 3.596v-80.899zm13.609 49.978l-5.519-2.643v38.742c1.797 1.15 3.595 2.301 5.519 3.469v-39.568z" fill="#08217E"/></g><path d="M1047.36 430.346c-48.535-7.946-119.942-28.225-120.661-28.44a.326.326 0 01-.252-.324v-50.031a.36.36 0 01.342-.342c.189 0 .342.153.342.342v49.761c4.656 1.313 73.329 20.639 120.339 28.351.09.013.17.061.22.132.05.071.07.159.05.245 0 .093-.05.18-.12.239a.318.318 0 01-.26.067z" fill="#fff"/><path opacity=".5" d="M926.735 381.339l18.319-10.588 27.254 22.777 18.822-22.777 17.98 31.982 15.94-9.205 15.79 20.692v14.634s-94.474-20.099-114.159-27.326l.054-20.189z" fill="#fff"/><path d="M946.672 370.751a1.925 1.925 0 00-1.618-2.122c-.881 0-1.6.953-1.6 2.122 0 1.168.719 2.139 1.6 2.139.881 0 1.618-.953 1.618-2.139zm46.13 0a1.925 1.925 0 00-1.618-2.122c-.881 0-1.6.953-1.6 2.122 0 1.168.719 2.139 1.6 2.139.881 0 1.618-.953 1.618-2.139zm-18.948 22.723c0-1.168-.719-2.121-1.6-2.121a1.923 1.923 0 00-1.618 2.121c0 1.187.719 2.14 1.618 2.14.899 0 1.6-.917 1.6-2.14zm36.906 9.259c0-1.187-.72-2.14-1.6-2.14-.88 0-1.62.953-1.62 2.14a1.933 1.933 0 001.62 2.121c.88 0 1.6-.953 1.6-2.121zm15.86-9.205c0-1.186-.72-2.139-1.6-2.139-.88 0-1.62.953-1.62 2.139a1.925 1.925 0 001.62 2.121c.88 0 1.6-.952 1.6-2.121zm15.91 20.117c0-1.169-.72-2.121-1.6-2.121a1.925 1.925 0 00-1.62 2.121c0 1.187.72 2.139 1.62 2.139.9 0 1.6-.952 1.6-2.139zm3.32 106.894h-.09c-32.36-8.719-118.288-43.703-119.151-44.063a.305.305 0 01-.216-.305v-53.124a.342.342 0 01.342-.323.322.322 0 01.342.323v52.926c4.782 1.942 87.353 35.452 118.863 43.955.09.021.17.077.21.156.05.078.06.172.03.258a.35.35 0 01-.33.197z" fill="#fff"/><path d="M946.672 466.859c0-1.187-.719-2.14-1.618-2.14-.899 0-1.6.953-1.6 2.14 0 1.186.719 2.139 1.6 2.139.881 0 1.618-.953 1.618-2.139zm27.182-16.702c0-1.168-.719-2.121-1.6-2.121a1.923 1.923 0 00-1.618 2.121c0 1.187.719 2.14 1.618 2.14.899 0 1.6-.953 1.6-2.14zm15.73 16.486c.894 0 1.618-.958 1.618-2.14 0-1.181-.724-2.139-1.618-2.139-.893 0-1.618.958-1.618 2.139 0 1.182.725 2.14 1.618 2.14zm21.176-10.607c0-1.186-.72-2.139-1.6-2.139-.88 0-1.62.953-1.62 2.139a1.932 1.932 0 001.62 2.121c.88 0 1.6-.952 1.6-2.121zM1026.62 472c0-1.186-.72-2.139-1.6-2.139-.88 0-1.62.953-1.62 2.139 0 1.187.72 2.139 1.62 2.139.9 0 1.6-.952 1.6-2.139zm14.45 33.924c.9 0 1.62-.958 1.62-2.14 0-1.181-.72-2.139-1.62-2.139-.89 0-1.62.958-1.62 2.139 0 1.182.73 2.14 1.62 2.14z" fill="#fff"/><path opacity=".5" d="M926.735 439.209l18.319 27.649 27.2-15.694 17.33 13.339 19.576-8.467L1025.02 472l16.05 31.784-.18 15.047c-40.03-13.483-78.2-27.667-114.155-42.624v-36.998zm-80.162-103.73s20.351 5.051 44.477 9.24v30.562s-36.117-10.876-44.495-13.573l.018-26.229z" fill="#fff"/><path opacity=".5" d="M347.499 440.827a6.03 6.03 0 00-3.29 0h-.162l-28.764 8.899a8.18 8.18 0 00-5.663 5.771c-1.24 4.224.665 8.503 4.261 9.564a5.947 5.947 0 002.858.108c3.793-.827 26.068-8 29.537-9.115h.144l.306-.09a8.284 8.284 0 004.961-5.555c1.331-4.225-.575-8.521-4.188-9.582z" fill="#20378A"/><path d="M349.095 449.157a4.567 4.567 0 10-5.807 3.794 4.926 4.926 0 005.807-3.794z" fill="#fff"/><path opacity=".5" d="M354.223 499.632a4.439 4.439 0 00-4.027.503c-23.731 8.989-64.054 19.326-64.054 19.326a6.166 6.166 0 00-4.531 3.991c-1.186 3.074-.143 6.346 2.355 7.317a4.227 4.227 0 003.075 0c40.575-10.787 65.006-19.776 65.006-19.776a6.166 6.166 0 004.513-4.009c1.204-3.11.162-6.382-2.337-7.352zm0 23.208a4.476 4.476 0 00-4.027.486c-23.731 8.989-64.054 19.326-64.054 19.326a6.202 6.202 0 00-4.531 4.009c-1.186 3.074-.143 6.346 2.355 7.317a4.227 4.227 0 003.075 0c40.575-10.787 65.006-19.776 65.006-19.776a6.148 6.148 0 004.513-3.991c1.204-3.128.162-6.4-2.337-7.371zm0 23.192a4.545 4.545 0 00-4.027.503c-23.731 8.989-64.054 19.326-64.054 19.326a6.202 6.202 0 00-4.531 4.009c-1.186 3.056-.143 6.346 2.355 7.317a4.227 4.227 0 003.075 0c40.575-10.787 65.006-19.776 65.006-19.776a6.183 6.183 0 004.513-3.991c1.204-3.128.162-6.4-2.337-7.388zm-.234 22.597a4.533 4.533 0 00-4.009.575c-23.569 9.385-63.713 20.441-63.713 20.441a6.13 6.13 0 00-4.44 4.081c-1.151 3.074 0 6.346 2.463 7.191a4.225 4.225 0 003.074 0c40.377-11.524 64.719-20.926 64.719-20.926a6.149 6.149 0 004.458-4.081c1.043-3.074-.09-6.346-2.552-7.281z" fill="#fff"/><path d="M354.222 499.632a4.44 4.44 0 00-4.027.503c-10.786 4.063-24.952 8.431-37.231 11.973v11.38c24.809-7.299 39.083-12.585 39.083-12.585a6.163 6.163 0 004.512-4.009c1.205-3.02.162-6.292-2.337-7.262zm-26.966 42.732c15.784-4.908 24.593-8.144 24.593-8.144a6.163 6.163 0 004.512-4.009c1.205-3.074.162-6.346-2.337-7.317a4.442 4.442 0 00-4.027.504c-6.687 2.535-14.687 5.159-22.741 7.658v11.308zm13.861 18.769c7.191-2.373 10.93-3.776 10.93-3.776a6.181 6.181 0 004.512-3.991c1.205-3.074.162-6.346-2.337-7.334a4.545 4.545 0 00-4.027.503c-2.822 1.079-5.896 2.157-9.078 3.254v11.344zm-28.153 32.126c24.773-7.749 38.993-13.268 38.993-13.268a6.148 6.148 0 004.459-4.081c1.15-3.074 0-6.346-2.481-7.281a4.53 4.53 0 00-4.009.576c-10.679 4.26-24.755 8.845-36.962 12.584v11.47z" fill="#fff"/><path opacity=".5" d="M731.319 157.393v11.865a135.866 135.866 0 00-14.616-1.096v-10.787a84.93 84.93 0 0114.616.018zm0 21.088v12.189a118.053 118.053 0 00-14.616-4.513v-10.139c4.924.478 9.808 1.301 14.616 2.463zm-21.663-3.506v9.888s-5.231-1.24-11.577-2.085v-9.259s1.402-.269 11.577 1.456zm0-17.582v10.787a65.797 65.797 0 00-11.649-.27l-.216-10.247c3.94-.424 7.91-.514 11.865-.27z" fill="#fff"/><defs><linearGradient id="paint0_linear_886_6340" x1="421.975" y1="669.964" x2="425.255" y2="642.888" gradientUnits="userSpaceOnUse"><stop stop-color="#3D3A71"/><stop offset="1" stop-color="#4F63DB"/></linearGradient><linearGradient id="paint1_linear_886_6340" x1="397.616" y1="652.039" x2="410.208" y2="606.917" gradientUnits="userSpaceOnUse"><stop stop-color="#3D3A71"/><stop offset="1" stop-color="#4F63DB"/></linearGradient><linearGradient id="paint2_linear_886_6340" x1="450.157" y1="672.983" x2="509.799" y2="467.748" gradientUnits="userSpaceOnUse"><stop stop-color="#FF3B72"/><stop offset="1" stop-color="#FF3D2B"/></linearGradient><linearGradient id="paint3_linear_886_6340" x1="184.959" y1="392.782" x2="169.46" y2="392.782" gradientUnits="userSpaceOnUse"><stop stop-color="#FFCBAD"/><stop offset="1" stop-color="#FF9B75"/></linearGradient><linearGradient id="paint4_linear_886_6340" x1="153.135" y1="371.641" x2="143.721" y2="393.819" gradientUnits="userSpaceOnUse"><stop stop-color="#706CAA"/><stop offset="1" stop-color="#3D3A71"/></linearGradient><linearGradient id="paint5_linear_886_6340" x1="677.953" y1="34.974" x2="669.759" y2="69.782" gradientUnits="userSpaceOnUse"><stop stop-color="#71AAFF"/><stop offset="1" stop-color="#4F63DB"/></linearGradient><linearGradient id="paint6_linear_886_6340" x1="1132.77" y1="7.678" x2="1131.11" y2="15.718" gradientUnits="userSpaceOnUse"><stop stop-color="#1C78AB"/><stop offset="1" stop-color="#0C4373"/></linearGradient><linearGradient id="paint7_linear_886_6340" x1="1137.61" y1="70.632" x2="1129.73" y2="80.579" gradientUnits="userSpaceOnUse"><stop stop-color="#1C78AB"/><stop offset="1" stop-color="#0C4373"/></linearGradient><linearGradient id="paint8_linear_886_6340" x1="1268.2" y1="9.585" x2="1035.51" y2="132.294" gradientUnits="userSpaceOnUse"><stop stop-color="#71AAFF"/><stop offset="1" stop-color="#495CCE"/></linearGradient><linearGradient id="paint9_linear_886_6340" x1="646.282" y1="59.222" x2="658.609" y2="94.426" gradientUnits="userSpaceOnUse"><stop stop-color="#FDA887"/><stop offset="1" stop-color="#FA9D76"/></linearGradient><linearGradient id="paint10_linear_886_6340" x1="1046.1" y1="-16.243" x2="977.434" y2="104.523" gradientUnits="userSpaceOnUse"><stop stop-color="#71AAFF"/><stop offset="1" stop-color="#4F63DB"/></linearGradient><linearGradient id="paint11_linear_886_6340" x1="733.208" y1="165.733" x2="780.32" y2="142.168" gradientUnits="userSpaceOnUse"><stop stop-color="#FFCBAD"/><stop offset="1" stop-color="#FF9B75"/></linearGradient><linearGradient id="paint12_linear_886_6340" x1="785.965" y1="84.519" x2="802.893" y2="84.519" gradientUnits="userSpaceOnUse"><stop stop-color="#FFCBAD"/><stop offset="1" stop-color="#FF9B75"/></linearGradient><linearGradient id="paint13_linear_886_6340" x1="769.389" y1="13.925" x2="777.318" y2="43.022" gradientUnits="userSpaceOnUse"><stop stop-color="#FF9B75"/><stop offset="1" stop-color="#FF3B72"/></linearGradient><linearGradient id="paint14_linear_886_6340" x1="835.751" y1="276.587" x2="833.938" y2="287.033" gradientUnits="userSpaceOnUse"><stop stop-color="#FFAC8C"/><stop offset="1" stop-color="#FA9D76"/></linearGradient><linearGradient id="paint15_linear_886_6340" x1="964.278" y1="311.091" x2="960.672" y2="289.644" gradientUnits="userSpaceOnUse"><stop stop-color="#CBD6EF"/><stop offset="1" stop-color="#fff"/></linearGradient><linearGradient id="paint16_linear_886_6340" x1="959.42" y1="249.944" x2="973.759" y2="247.147" gradientUnits="userSpaceOnUse"><stop stop-color="#FFCBAD"/><stop offset="1" stop-color="#FF9B75"/></linearGradient><linearGradient id="paint17_linear_886_6340" x1="930.703" y1="334.682" x2="1018.5" y2="353.176" gradientUnits="userSpaceOnUse"><stop stop-color="#71AAFF"/><stop offset="1" stop-color="#4F63DB"/></linearGradient><linearGradient id="paint18_linear_886_6340" x1="946.728" y1="233.573" x2="959.724" y2="229.327" gradientUnits="userSpaceOnUse"><stop stop-color="#FFCBAD"/><stop offset="1" stop-color="#FF9B75"/></linearGradient><linearGradient id="paint19_linear_886_6340" x1="936.882" y1="212.849" x2="954.189" y2="223.041" gradientUnits="userSpaceOnUse"><stop stop-color="#706CAA"/><stop offset="1" stop-color="#3D3A71"/></linearGradient><linearGradient id="paint20_linear_886_6340" x1="1118.13" y1="282.61" x2="1117.61" y2="290.317" gradientUnits="userSpaceOnUse"><stop stop-color="#FFAC8C"/><stop offset="1" stop-color="#FA9D76"/></linearGradient><linearGradient id="paint21_linear_886_6340" x1="1032.04" y1="235.033" x2="1029.02" y2="251.814" gradientUnits="userSpaceOnUse"><stop stop-color="#CBD6EF"/><stop offset="1" stop-color="#fff"/></linearGradient><linearGradient id="paint22_linear_886_6340" x1="1507.14" y1="33.079" x2="632.002" y2="-421.242" gradientUnits="userSpaceOnUse"><stop stop-color="#71AAFF"/><stop offset=".5" stop-color="#E8F2FF"/><stop offset="1" stop-color="#596EEA"/></linearGradient><linearGradient id="paint23_linear_886_6340" x1="1117.91" y1="258.076" x2="760.964" y2="258.076" gradientUnits="userSpaceOnUse"><stop stop-color="#D6E0F9"/><stop offset=".5" stop-color="#D6E0F9"/><stop offset="1" stop-color="#4F63DB"/></linearGradient><linearGradient id="paint24_linear_886_6340" x1="733.243" y1="460.048" x2="827.373" y2="460.048" gradientUnits="userSpaceOnUse"><stop stop-color="#93C4FF"/><stop offset=".5" stop-color="#D6E0F9"/><stop offset="1" stop-color="#4F63DB"/></linearGradient><linearGradient id="paint25_linear_886_6340" x1="839.984" y1="560.403" x2="839.984" y2="555.48" gradientUnits="userSpaceOnUse"><stop stop-color="#C2C7D9"/><stop offset="1" stop-color="#fff"/></linearGradient><linearGradient id="paint26_linear_886_6340" x1="669.808" y1="502.029" x2="803.533" y2="602.586" gradientUnits="userSpaceOnUse"><stop stop-color="#3D3A71"/><stop offset="1" stop-color="#4F63DB"/></linearGradient><linearGradient id="paint27_linear_886_6340" x1="801.317" y1="526.123" x2="801.317" y2="519.256" gradientUnits="userSpaceOnUse"><stop stop-color="#C2C7D9"/><stop offset="1" stop-color="#fff"/></linearGradient><linearGradient id="paint28_linear_886_6340" x1="659.067" y1="527.435" x2="793.639" y2="545.693" gradientUnits="userSpaceOnUse"><stop stop-color="#3D3A71"/><stop offset="1" stop-color="#4F63DB"/></linearGradient><linearGradient id="paint29_linear_886_6340" x1="470.287" y1="225.165" x2="469.362" y2="231.852" gradientUnits="userSpaceOnUse"><stop stop-color="#FFCBAD"/><stop offset="1" stop-color="#FF9B75"/></linearGradient><linearGradient id="paint30_linear_886_6340" x1="564.297" y1="179.661" x2="571.112" y2="176.862" gradientUnits="userSpaceOnUse"><stop stop-color="#FFCBAD"/><stop offset="1" stop-color="#FF9B75"/></linearGradient><linearGradient id="paint31_linear_886_6340" x1="613.301" y1="418.633" x2="739.596" y2="404.712" gradientUnits="userSpaceOnUse"><stop stop-color="#3D3A71"/><stop offset="1" stop-color="#4F63DB"/></linearGradient><linearGradient id="paint32_linear_886_6340" x1="591.22" y1="286.581" x2="602.524" y2="292.491" gradientUnits="userSpaceOnUse"><stop stop-color="#FFAE8F"/><stop offset="1" stop-color="#FA9D76"/></linearGradient><linearGradient id="paint33_linear_886_6340" x1="614.44" y1="242.377" x2="597.222" y2="261.917" gradientUnits="userSpaceOnUse"><stop stop-color="#706CAA"/><stop offset="1" stop-color="#3D3A71"/></linearGradient><linearGradient id="paint34_linear_886_6340" x1="863.646" y1="633.086" x2="919.207" y2="600.711" gradientUnits="userSpaceOnUse"><stop stop-color="#3D3A71"/><stop offset="1" stop-color="#4F63DB"/></linearGradient><linearGradient id="paint35_linear_886_6340" x1="838.358" y1="533.064" x2="791.576" y2="503.567" gradientUnits="userSpaceOnUse"><stop stop-color="#3D3A71"/><stop offset="1" stop-color="#4F63DB"/></linearGradient><linearGradient id="paint36_linear_886_6340" x1=".198" y1="724.243" x2="639.716" y2="708.356" gradientUnits="userSpaceOnUse"><stop stop-color="#D6E0F9"/><stop offset=".5" stop-color="#D6E0F9"/><stop offset="1" stop-color="#4F63DB"/></linearGradient><linearGradient id="paint37_linear_886_6340" x1="516.29" y1="202.904" x2="411.247" y2="202.904" gradientUnits="userSpaceOnUse"><stop stop-color="#93C4FF"/><stop offset=".5" stop-color="#D6E0F9"/><stop offset="1" stop-color="#4F63DB"/></linearGradient><linearGradient id="paint38_linear_886_6340" x1="425.681" y1="512.052" x2="487.866" y2="507.372" gradientUnits="userSpaceOnUse"><stop stop-color="#D6E0F9"/><stop offset=".5" stop-color="#D6E0F9"/><stop offset="1" stop-color="#4F63DB"/></linearGradient><linearGradient id="paint39_linear_886_6340" x1="545.338" y1="-169.486" x2="380.403" y2="-175.065" gradientUnits="userSpaceOnUse"><stop stop-color="#D6E0F9"/><stop offset=".5" stop-color="#E8F2FF"/><stop offset="1" stop-color="#4F63DB"/></linearGradient><linearGradient id="paint40_linear_886_6340" x1="1096.52" y1="153.092" x2="1132.52" y2="207.654" gradientUnits="userSpaceOnUse"><stop stop-color="#FF6DB3"/><stop offset="1" stop-color="#FF3B72"/></linearGradient><linearGradient id="paint41_linear_886_6340" x1="1004.58" y1="907.324" x2="1831.14" y2="1006.6" gradientUnits="userSpaceOnUse"><stop stop-color="#00193D"/><stop offset="1" stop-color="#4ABEFF"/></linearGradient><linearGradient id="paint42_linear_886_6340" x1="1076.09" y1="195.325" x2="1116.33" y2="201.872" gradientUnits="userSpaceOnUse"><stop stop-color="#706CAA"/><stop offset="1" stop-color="#3D3A71"/></linearGradient></defs></svg>