<svg width="63" height="63" fill="none" xmlns="http://www.w3.org/2000/svg"><path d="M14.332 50.187a1.241 1.241 0 01-.881-2.122l3.114-3.114a1.245 1.245 0 111.762 1.762c-3.362 3.35-3.313 3.474-3.995 3.474z" fill="url(#paint0_linear_886_6902)"/><path d="M62.718 8.004v47.145a7.444 7.444 0 01-7.444 7.444H30.461a7.444 7.444 0 01-7.444-7.444v-5.806c15.086 5.26 26.513-13.536 15.496-24.578a14.887 14.887 0 00-15.496-3.51V8.003A7.444 7.444 0 0130.46.56h24.813a7.444 7.444 0 017.444 7.444z" fill="url(#paint1_linear_886_6902)"/><path d="M57.756 8.004v47.145a2.481 2.481 0 01-2.482 2.482H30.461a2.481 2.481 0 01-2.481-2.482v-4.962a14.888 14.888 0 100-29.777V8.004a2.481 2.481 0 012.48-2.482h4.963c.584 1.13 1.043 2.482 2.78 2.482 11.364 0 10.508.645 12.109-2.482h4.962a2.481 2.481 0 012.482 2.482z" fill="#F0F7FC"/><path d="M39.393 23.884a16.129 16.129 0 10-22.79 22.829 16.129 16.129 0 0022.79-22.829zm-1.762 21.092a13.66 13.66 0 01-19.305-19.33 13.512 13.512 0 019.653-3.995 13.647 13.647 0 019.652 23.3v.025z" fill="url(#paint2_linear_886_6902)"/><path d="M37.632 44.95a13.651 13.651 0 01-19.305-19.304 13.51 13.51 0 019.652-3.995 13.647 13.647 0 019.653 23.3z" fill="url(#paint3_linear_886_6902)"/><path d="M4.196 62.593a3.511 3.511 0 01-2.481-5.992l7.741-7.742a3.511 3.511 0 014.963 4.963c-8.275 8.275-8.288 8.771-10.223 8.771z" fill="url(#paint4_linear_886_6902)"/><path fill-rule="evenodd" clip-rule="evenodd" d="M32.458 28.574a6.723 6.723 0 01-5.607 3.002h-3.834a3.722 3.722 0 00-.886 7.338c.371.935.683 1.732.948 2.411 1.42 3.636 1.522 3.899 2.42 3.899a1.24 1.24 0 001.153-1.7L24.85 39.02h2.001a6.724 6.724 0 015.607 3.003 1.625 1.625 0 002.966-.893V29.467a1.625 1.625 0 00-2.966-.893z" fill="url(#paint5_linear_886_6902)"/><defs><linearGradient id="paint0_linear_886_6902" x1="21.006" y1="41.782" x2="12.898" y2="46.626" gradientUnits="userSpaceOnUse"><stop stop-color="#FF9B75"/><stop offset="1" stop-color="#FF3B72"/></linearGradient><linearGradient id="paint1_linear_886_6902" x1="24.052" y1="57.334" x2="62.718" y2=".56" gradientUnits="userSpaceOnUse"><stop stop-color="#4F63DB"/><stop offset="1" stop-color="#8492E8"/></linearGradient><linearGradient id="paint2_linear_886_6902" x1="57.44" y1="3.019" x2="10.766" y2="30.868" gradientUnits="userSpaceOnUse"><stop stop-color="#FF9B75"/><stop offset="1" stop-color="#FF3B72"/></linearGradient><linearGradient id="paint3_linear_886_6902" x1="14.344" y1="35.298" x2="41.627" y2="35.298" gradientUnits="userSpaceOnUse"><stop stop-color="#D3E6F5"/><stop offset="1" stop-color="#F0F7FC"/></linearGradient><linearGradient id="paint4_linear_886_6902" x1="21.424" y1="40.561" x2=".183" y2="53.233" gradientUnits="userSpaceOnUse"><stop stop-color="#FF9B75"/><stop offset="1" stop-color="#FF3B72"/></linearGradient><linearGradient id="paint5_linear_886_6902" x1="42.08" y1="19.178" x2="17.877" y2="32.599" gradientUnits="userSpaceOnUse"><stop stop-color="#FF9B75"/><stop offset="1" stop-color="#FF3B72"/></linearGradient></defs></svg>