<svg width="112" height="91" fill="none" xmlns="http://www.w3.org/2000/svg"><path d="M110.611 38.485v50.809H61.568V55.42c0-11.29 2.18-20.417 6.54-27.38 4.359-6.963 9.172-12.42 14.44-16.372 6.175-4.516 13.26-7.809 21.251-9.879l5.449 18.348c-3.269.94-6.266 2.258-8.991 3.951-2.361 1.506-4.54 3.388-6.539 5.646-1.998 2.258-3.178 5.175-3.542 8.75h20.435zm-59.94 0v50.809H1.627V55.42c0-11.29 2.18-20.417 6.539-27.38 4.36-6.963 9.173-12.42 14.44-16.372C28.783 7.153 35.867 3.86 43.86 1.79l5.449 18.348c-3.27.94-6.267 2.258-8.991 3.951-2.361 1.506-4.541 3.388-6.54 5.646-1.997 2.258-3.178 5.175-3.541 8.75H50.67z" stroke="#4F63DB" stroke-width="2"/></svg>