<svg width="63" height="63" fill="none" xmlns="http://www.w3.org/2000/svg"><path d="M52.432 24.943v23.573H10.25V22.462h6.204l3.722 3.722V19.98H41.18c.708 1.13 1.886.211 2.63 0a3.721 3.721 0 014.728 3.201v.645a1.24 1.24 0 001.24 1.117h2.655z" fill="url(#paint0_linear_886_6792)"/><path d="M39.766 17.561c-.745-1.303.893-1.824 1.5-2.543h-21.09v4.962H41.18c-.124-.124-.211-.347-1.414-2.419zm14.081 5.62v.645a1.241 1.241 0 01-1.24 1.117c-.174 0-.174-1.774-.174 23.573H10.25V22.462H5.287c0 28.014-.149 28.336.335 28.808a3.722 3.722 0 003.387 2.208h16.129l1.24 1.241h9.926l1.24-1.24c15.075 0 17.122.248 18.14-.596a3.723 3.723 0 001.711-3.127V19.831a3.722 3.722 0 00-3.548 3.35z" fill="url(#paint1_linear_886_6792)"/><path d="M62.358 55.96v1.24a4.963 4.963 0 01-4.963 4.963H5.287A4.963 4.963 0 01.324 57.2v-1.24a2.481 2.481 0 012.482-2.482h22.332l1.24 1.241h9.926l1.24-1.24h22.332a2.482 2.482 0 012.482 2.48z" fill="url(#paint2_linear_886_6792)"/><path d="M62.271 15.936a1.24 1.24 0 01.347 1.625l-1.364 2.42c-.658 1.153-1.998.322-2.171.247a3.721 3.721 0 00-5.236 3.015v.645a1.241 1.241 0 01-1.24 1.117h-2.78c-1.352 0-1.24-1.6-1.24-1.762a3.722 3.722 0 00-2.705-3.263 4.096 4.096 0 00-3.176.447 1.24 1.24 0 01-1.526-.447c-.124-.124-.211-.347-1.415-2.42-.67-1.178.732-1.897.881-1.996a3.724 3.724 0 000-6.055l-.533-.372a1.24 1.24 0 01-.348-1.563c1.638-2.842 1.576-3.462 3.536-2.606a3.722 3.722 0 005.236-3.015v-.645a1.24 1.24 0 011.24-1.116h2.73c1.352 0 1.24 1.6 1.24 1.761a3.722 3.722 0 005.236 3.015l.596-.26a1.24 1.24 0 011.575.508c1.6 2.767 2.246 3.127.484 4.355a3.722 3.722 0 000 6.055l.633.31z" fill="url(#paint3_linear_886_6792)"/><path d="M51.192 17.499a4.963 4.963 0 100-9.926 4.963 4.963 0 000 9.926zm0-7.444a2.481 2.481 0 110 4.962 2.481 2.481 0 010-4.962z" fill="url(#paint4_linear_886_6792)"/><path d="M51.192 15.018a2.481 2.481 0 100-4.963 2.481 2.481 0 000 4.963z" fill="#F0F7FC"/><path d="M35.82 26.903a6.724 6.724 0 01-5.608 3.003H28.86v7.444h1.352a6.725 6.725 0 015.608 3.002 1.625 1.625 0 002.965-.893V27.796a1.625 1.625 0 00-2.965-.893z" fill="url(#paint5_linear_886_6792)"/><path d="M28.86 43.553c-1.105 0-1.006-.41-3.636-6.985a1.241 1.241 0 112.308-.918l2.481 6.203a1.24 1.24 0 01-1.154 1.7z" fill="#54A5FF"/><path d="M20.175 15.018v14.888l-3.722-3.722H4.046a3.722 3.722 0 01-3.722-3.722v-7.444a3.722 3.722 0 013.722-3.723h12.407a3.722 3.722 0 013.722 3.723z" fill="url(#paint6_linear_886_6792)"/><path d="M6.527 18.74a1.24 1.24 0 11-2.481 0 1.24 1.24 0 012.481 0zm4.963 0a1.24 1.24 0 11-2.481 0 1.24 1.24 0 012.481 0zm4.963 0a1.24 1.24 0 11-2.481 0 1.24 1.24 0 012.481 0z" fill="#F0F7FC"/><path d="M28.86 37.35h-2.482a3.722 3.722 0 110-7.444h2.482v7.444z" fill="#54A5FF"/><defs><linearGradient id="paint0_linear_886_6792" x1="10.249" y1="34.173" x2="52.432" y2="34.173" gradientUnits="userSpaceOnUse"><stop stop-color="#D3E6F5"/><stop offset="1" stop-color="#F0F7FC"/></linearGradient><linearGradient id="paint1_linear_886_6792" x1="8.285" y1="54.719" x2="54.892" y2="15.018" gradientUnits="userSpaceOnUse"><stop stop-color="#4F63DB"/><stop offset="1" stop-color="#8492E8"/></linearGradient><linearGradient id="paint2_linear_886_6792" x1=".324" y1="57.821" x2="62.358" y2="57.821" gradientUnits="userSpaceOnUse"><stop stop-color="#4F63DB"/><stop offset="1" stop-color="#8492E8"/></linearGradient><linearGradient id="paint3_linear_886_6792" x1="72.359" y1="-12.232" x2="37.645" y2="7.134" gradientUnits="userSpaceOnUse"><stop stop-color="#FF9B75"/><stop offset="1" stop-color="#FF3B72"/></linearGradient><linearGradient id="paint4_linear_886_6792" x1="42.133" y1="22.468" x2="56.494" y2="13.9" gradientUnits="userSpaceOnUse"><stop stop-color="#FF9B75"/><stop offset="1" stop-color="#FF3B72"/></linearGradient><linearGradient id="paint5_linear_886_6792" x1="326.621" y1="531.449" x2="406.024" y2="531.449" gradientUnits="userSpaceOnUse"><stop stop-color="#54A5FF"/><stop offset="1" stop-color="#8AD3FE"/></linearGradient><linearGradient id="paint6_linear_886_6792" x1="28.368" y1="1.978" x2=".648" y2="19.62" gradientUnits="userSpaceOnUse"><stop stop-color="#FF9B75"/><stop offset="1" stop-color="#FF3B72"/></linearGradient></defs></svg>