<svg width="65" height="65" fill="none" xmlns="http://www.w3.org/2000/svg"><path d="M63.35 4.522v6.204H1.317V4.522A3.722 3.722 0 015.039.8h54.59a3.722 3.722 0 013.721 3.722z" fill="#B4CDE1"/><path d="M8.76 5.763a1.24 1.24 0 11-2.48 0 1.24 1.24 0 012.48 0z" fill="#0668CB"/><path d="M14.964 5.763a1.241 1.241 0 11-2.482 0 1.241 1.241 0 012.482 0z" fill="#54A5FF"/><path d="M21.168 5.763a1.24 1.24 0 11-2.481 0 1.24 1.24 0 012.48 0z" fill="#F0F7FC"/><path d="M63.35 10.726v35.98a3.722 3.722 0 01-3.722 3.721h-2.48V38.02a1.24 1.24 0 00-1.242-1.24h-2.48a1.24 1.24 0 00-1.242 1.24v12.407h-6.203v-2.481a1.24 1.24 0 00-1.24-1.24h-2.482a1.24 1.24 0 00-1.24 1.24v2.481h-6.204v-7.444a1.24 1.24 0 00-1.24-1.24h-2.482a1.24 1.24 0 00-1.24 1.24v7.444H5.038a3.722 3.722 0 01-3.722-3.722v-35.98H63.35z" fill="url(#paint0_linear_886_6864)"/><path d="M58.288 21.42c-.421-1.042-.93-.769-7.344-.769a1.24 1.24 0 000 2.482h3.213l-14.38 14.379-6.563-6.576a1.242 1.242 0 00-1.761 0L.436 61.953a1.24 1.24 0 00.88 2.122c.795 0-1.389 1.898 31.018-30.509l6.563 6.576a1.242 1.242 0 001.761 0l15.248-15.26v3.213a1.241 1.241 0 002.482 0c0-6.687 0-6.352-.1-6.675z" fill="url(#paint1_linear_886_6864)"/><path fill-rule="evenodd" clip-rule="evenodd" d="M57.147 61.593V38.02a1.241 1.241 0 00-1.24-1.24h-2.482a1.24 1.24 0 00-1.24 1.24v23.573H45.98V47.946a1.24 1.24 0 00-1.24-1.24h-2.482a1.24 1.24 0 00-1.24 1.24v13.647h-6.204v-18.61a1.24 1.24 0 00-1.24-1.24h-2.482a1.24 1.24 0 00-1.24 1.24v18.61h-6.204V55.39a1.241 1.241 0 00-1.24-1.24h-2.482a1.24 1.24 0 00-1.24 1.24v6.203h-4.963a1.24 1.24 0 100 2.482H63.35a1.24 1.24 0 100-2.482h-6.203z" fill="url(#paint2_linear_886_6864)"/><path fill-rule="evenodd" clip-rule="evenodd" d="M20.683 17.649a6.724 6.724 0 01-5.607 3.002h-3.834a3.722 3.722 0 00-.885 7.337c.378.952.694 1.76.962 2.447 1.405 3.595 1.51 3.863 2.404 3.863a1.24 1.24 0 001.154-1.7l-1.801-4.503h2a6.724 6.724 0 015.607 3.003 1.626 1.626 0 002.966-.894V18.542a1.625 1.625 0 00-2.966-.893z" fill="url(#paint3_linear_886_6864)"/><defs><linearGradient id="paint0_linear_886_6864" x1="1.317" y1="30.576" x2="63.35" y2="30.576" gradientUnits="userSpaceOnUse"><stop stop-color="#C9DFF1"/><stop offset="1" stop-color="#F0F7FC"/></linearGradient><linearGradient id="paint1_linear_886_6864" x1="82.457" y1="-1.15" x2="12.711" y2="54.673" gradientUnits="userSpaceOnUse"><stop stop-color="#FF9B75"/><stop offset="1" stop-color="#FF3B72"/></linearGradient><linearGradient id="paint2_linear_886_6864" x1="86.097" y1="23.113" x2="41.598" y2="73.802" gradientUnits="userSpaceOnUse"><stop stop-color="#FF9B75"/><stop offset="1" stop-color="#FF3B72"/></linearGradient><linearGradient id="paint3_linear_886_6864" x1="7.52" y1="25.621" x2="23.649" y2="25.621" gradientUnits="userSpaceOnUse"><stop stop-color="#4F63DB"/><stop offset="1" stop-color="#8492E8"/></linearGradient></defs></svg>