<svg width="63" height="63" fill="none" xmlns="http://www.w3.org/2000/svg"><path d="M57.871 4.004v6.203H.801V4.004A3.722 3.722 0 014.521.282H54.15a3.722 3.722 0 013.722 3.722z" fill="#B4CDE1"/><path d="M8.245 5.245a1.24 1.24 0 11-2.482 0 1.24 1.24 0 012.482 0z" fill="#0668CB"/><path d="M14.448 5.245a1.24 1.24 0 11-2.482 0 1.24 1.24 0 012.482 0z" fill="#54A5FF"/><path d="M20.651 5.245a1.24 1.24 0 11-2.48 0 1.24 1.24 0 012.48 0z" fill="#F0F7FC"/><path d="M57.871 10.207v31.017a3.722 3.722 0 01-3.722 3.722H4.522A3.722 3.722 0 01.8 41.224V10.207h57.071z" fill="url(#paint0_linear_886_6824)"/><path d="M51.668 23.234a3.226 3.226 0 01-3.337 3.102H37.636a3.113 3.113 0 01-2.38-5.4 3.115 3.115 0 012.38-.803H48.33a3.225 3.225 0 013.338 3.101z" fill="url(#paint1_linear_886_6824)"/><path d="M14.663 29.991a8.032 8.032 0 100-16.064 8.032 8.032 0 000 16.064z" fill="url(#paint2_linear_886_6824)"/><path d="M14.663 23.298a2.677 2.677 0 100-5.355 2.677 2.677 0 000 5.355z" fill="url(#paint3_linear_886_6824)"/><path d="M19.67 28.238a8.032 8.032 0 01-10.014 0l.201-1.004a4.913 4.913 0 019.612 0l.2 1.004z" fill="url(#paint4_linear_886_6824)"/><path d="M26.855 35.02H8.245a1.24 1.24 0 010-2.48h18.61a1.24 1.24 0 110 2.48zm-7.445 4.963H8.246a1.24 1.24 0 110-2.481H19.41a1.24 1.24 0 110 2.481z" fill="#B4CDE1"/><path d="M62.834 42.018v6.39a16.724 16.724 0 01-7.444 13.907H38.02a16.724 16.724 0 01-7.444-13.907V37.502c0-4.23 7.444-2.804 7.444 2.481V27.13a3.225 3.225 0 012.78-3.275 3.1 3.1 0 013.424 3.101v11.166a3.102 3.102 0 013.424-3.101 3.226 3.226 0 012.779 3.275v1.067a3.102 3.102 0 013.424-3.102 3.226 3.226 0 012.78 3.276v2.307a3.102 3.102 0 013.423-3.101 3.226 3.226 0 012.78 3.275z" fill="url(#paint5_linear_886_6824)"/><path opacity=".6" d="M38.02 39.983v8.685a2.481 2.481 0 01-2.48-2.481V35.678a4.963 4.963 0 012.48 4.305z" fill="#FF9B75"/><defs><linearGradient id="paint0_linear_886_6824" x1=".8" y1="27.577" x2="57.871" y2="27.577" gradientUnits="userSpaceOnUse"><stop stop-color="#C9DFF1"/><stop offset="1" stop-color="#F0F7FC"/></linearGradient><linearGradient id="paint1_linear_886_6824" x1="34.244" y1="23.234" x2="51.668" y2="23.234" gradientUnits="userSpaceOnUse"><stop stop-color="#4F63DB"/><stop offset="1" stop-color="#8492E8"/></linearGradient><linearGradient id="paint2_linear_886_6824" x1="6.631" y1="21.959" x2="22.695" y2="21.959" gradientUnits="userSpaceOnUse"><stop stop-color="#4F63DB"/><stop offset="1" stop-color="#8492E8"/></linearGradient><linearGradient id="paint3_linear_886_6824" x1="274.37" y1="82.201" x2="295.789" y2="82.201" gradientUnits="userSpaceOnUse"><stop stop-color="#D3E6F5"/><stop offset="1" stop-color="#F0F7FC"/></linearGradient><linearGradient id="paint4_linear_886_6824" x1="482.893" y1="133.102" x2="557.793" y2="133.102" gradientUnits="userSpaceOnUse"><stop stop-color="#D3E6F5"/><stop offset="1" stop-color="#F0F7FC"/></linearGradient><linearGradient id="paint5_linear_886_6824" x1="76.148" y1="4.572" x2="25.524" y2="29.896" gradientUnits="userSpaceOnUse"><stop stop-color="#FF9B75"/><stop offset="1" stop-color="#FF3B72"/></linearGradient></defs></svg>