<svg width="29" height="29" fill="none" xmlns="http://www.w3.org/2000/svg"><g clip-path="url(#clip0_886_7473)"><path d="M14.018.453C6.274.453 0 6.733 0 14.485s6.274 14.032 14.018 14.032c7.743 0 14.017-6.28 14.017-14.032S21.761.453 14.018.453zm6.884 9.613l-2.3 10.852c-.17.77-.628.957-1.267.594l-3.504-2.585-1.69 1.63c-.186.186-.345.344-.706.344l.248-3.57 6.495-5.873c.282-.25-.062-.39-.436-.142l-8.026 5.059-3.459-1.081c-.752-.238-.769-.753.158-1.115L19.93 8.963c.627-.227 1.176.152.972 1.103z" fill="#3D3A71"/></g><defs><clipPath id="clip0_886_7473"><path fill="#fff" d="M0 0h28.035v28.97H0z"/></clipPath></defs></svg>