<svg width="30" height="29" fill="none" xmlns="http://www.w3.org/2000/svg"><g clip-path="url(#clip0_886_7475)"><circle cx="15.447" cy="14.501" fill="#3D3A71" r="14.485"/><path d="M24.652 8.982a7.275 7.275 0 01-2.086.571 3.643 3.643 0 001.597-2.01 7.254 7.254 0 01-2.307.881 3.635 3.635 0 00-6.191 3.315 10.318 10.318 0 01-7.49-3.797A3.635 3.635 0 009.3 12.793a3.625 3.625 0 01-1.646-.454v.046a3.635 3.635 0 002.915 3.563 3.659 3.659 0 01-1.64.063 3.636 3.636 0 003.394 2.522 7.291 7.291 0 01-5.38 1.505 10.276 10.276 0 005.568 1.633c6.685 0 10.339-5.536 10.339-10.338 0-.156-.004-.313-.011-.47a7.387 7.387 0 001.812-1.879l.001-.002z" fill="#fff"/></g><defs><clipPath id="clip0_886_7475"><path fill="#fff" transform="translate(.962 .016)" d="M0 0h28.97v28.97H0z"/></clipPath></defs></svg>