<svg width="30" height="29" fill="none" xmlns="http://www.w3.org/2000/svg"><g clip-path="url(#clip0_886_7470)"><circle cx="15.472" cy="14.501" r="14.485" fill="#red"/><path fill-rule="evenodd" clip-rule="evenodd" d="M22.641 16.711s1.556 1.537 1.94 2.247a.12.12 0 01.018.034c.157.263.195.469.118.62-.13.252-.57.378-.718.388h-2.75c-.191 0-.59-.05-1.074-.385-.37-.258-.739-.684-1.096-1.101-.533-.619-.994-1.155-1.46-1.155a.528.528 0 00-.173.028c-.353.112-.802.615-.802 1.955 0 .42-.33.658-.562.658h-1.26c-.429 0-2.662-.15-4.643-2.238-2.427-2.557-4.607-7.687-4.628-7.732-.136-.332.149-.512.457-.512h2.776c.372 0 .494.225.578.427.098.232.462 1.159 1.058 2.2.966 1.696 1.56 2.385 2.034 2.385a.5.5 0 00.254-.067c.62-.34.504-2.553.475-3.009 0-.088 0-.988-.318-1.423-.227-.311-.614-.433-.848-.477a1.01 1.01 0 01.366-.31c.424-.212 1.19-.243 1.952-.243h.422c.825.012 1.039.064 1.339.14.604.145.616.536.563 1.87-.016.38-.032.81-.032 1.315 0 .107-.005.228-.005.35-.018.684-.042 1.454.44 1.77.063.04.136.06.21.06.167 0 .668 0 2.027-2.332a17.378 17.378 0 001.09-2.337c.027-.051.108-.194.206-.252a.46.46 0 01.227-.054h3.266c.356 0 .598.054.645.189.078.218-.016.885-1.507 2.9-.25.337-.471.627-.665.881-1.351 1.774-1.351 1.864.08 3.21z" fill="#fff"/></g><defs><clipPath id="clip0_886_7470"><path fill="#fff" transform="translate(.987 .016)" d="M0 0h28.97v28.97H0z"/></clipPath></defs></svg>