<svg width="103" height="32" fill="none" xmlns="http://www.w3.org/2000/svg"><path fill-rule="evenodd" clip-rule="evenodd" d="M61.56 9.97V6.69h3.46L58.561 0l-6.457 6.69h3.52v7.465a7.129 7.129 0 00-1.477-2.026 7.569 7.569 0 00-2.53-1.589c-.977-.38-2.05-.57-3.217-.57h-9.475v21.508h5.944V25.2h3.61c1.157 0 2.218-.185 3.186-.554a7.364 7.364 0 002.499-1.557 7.049 7.049 0 001.46-2.01v2.113c0 1.36.247 2.585.74 3.676a8.051 8.051 0 002.043 2.776c.867.759 1.889 1.341 3.066 1.747 1.177.406 2.45.609 3.816.609 1.482 0 2.82-.221 4.012-.664 1.193-.443 2.208-1.054 3.043-1.835a7.891 7.891 0 001.924-2.79c.446-1.081.67-2.254.67-3.52v-3.367l4.792 6.42h1.45l4.683-6.8v12.034h5.93V25.2h3.291c1.157 0 2.218-.185 3.185-.554a7.356 7.356 0 002.499-1.557 7.122 7.122 0 001.64-2.404c.394-.933.591-1.958.591-3.076 0-1.107-.197-2.127-.591-3.06a7.173 7.173 0 00-1.656-2.42 7.565 7.565 0 00-2.53-1.589c-.978-.38-2.05-.57-3.217-.57h-8.437v.074l-6.111 8.482-6.04-8.555h-5.234v.05l-.188-.05v13.236a4.79 4.79 0 01-.245 1.566 3.502 3.502 0 01-.709 1.226c-.31.342-.696.608-1.159.798-.463.19-.993.285-1.592.285-.61 0-1.149-.095-1.616-.285a3.211 3.211 0 01-1.175-.799 3.338 3.338 0 01-.71-1.225 4.883 4.883 0 01-.236-1.55l.007-13.252zM48.134 20.235H44.87v-5.298h3.28c.315 0 .612.072.89.214.279.142.523.337.733.585.21.248.376.532.497.854.121.322.182.662.182 1.02 0 .37-.06.712-.182 1.028a2.6 2.6 0 01-.504.83 2.461 2.461 0 01-.742.562 1.976 1.976 0 01-.89.205zm43.34 0h3.264c.315 0 .612-.068.89-.205.28-.137.526-.325.742-.562.215-.237.383-.514.504-.83.121-.316.181-.659.181-1.028 0-.358-.06-.698-.18-1.02a2.867 2.867 0 00-.497-.854 2.37 2.37 0 00-.734-.585 1.93 1.93 0 00-.89-.214h-3.28v5.298z" fill="#FF3B72"/><path fill-rule="evenodd" clip-rule="evenodd" d="M0 31.478V9.971h21.333v21.507H15.39V14.936H5.944v4.286h7.097v4.966H5.944v7.29H0zm29.72-11.576l9.228 11.576v-8.71L28.98 9.971h-5.203v21.507h5.944V19.902z" fill="#4F63DB"/></svg>